<svg width="20" height="20" viewBox="0 0 20 20" fill="none" xmlns="http://www.w3.org/2000/svg">
<path fill-rule="evenodd" clip-rule="evenodd" d="M3.5361 3.53616C4.92591 2.14635 7.07494 1.66675 10 1.66675C12.9251 1.66675 15.0741 2.14635 16.4639 3.53616C17.8538 4.92597 18.3334 7.075 18.3334 10.0001C18.3334 12.9252 17.8538 15.0742 16.4639 16.464C15.0741 17.8538 12.9251 18.3334 10 18.3334C7.07494 18.3334 4.92591 17.8538 3.5361 16.464C2.14629 15.0742 1.66669 12.9252 1.66669 10.0001C1.66669 7.075 2.14629 4.92597 3.5361 3.53616ZM4.41999 4.42005C3.40084 5.43919 2.91669 7.14433 2.91669 10.0001C2.91669 12.8558 3.40084 14.561 4.41999 15.5801C5.43913 16.5993 7.14427 17.0834 10 17.0834C12.8558 17.0834 14.5609 16.5993 15.58 15.5801C16.5992 14.561 17.0834 12.8558 17.0834 10.0001C17.0834 7.14433 16.5992 5.43919 15.58 4.42005C14.5609 3.4009 12.8558 2.91675 10 2.91675C7.14427 2.91675 5.43913 3.4009 4.41999 4.42005Z" fill="#2C2E23"/>
<path fill-rule="evenodd" clip-rule="evenodd" d="M13.1934 6.80665C13.3579 6.97112 13.4174 7.2133 13.3479 7.43526L12.0362 11.6261C11.9751 11.8216 11.822 11.9747 11.6266 12.0358L7.43488 13.3483C7.21291 13.4178 6.97071 13.3583 6.80622 13.1939C6.64174 13.0294 6.58218 12.7873 6.65165 12.5653L7.96331 8.37359C8.0245 8.17807 8.17762 8.02495 8.37315 7.96377L12.5648 6.6521C12.7868 6.58264 13.029 6.64219 13.1934 6.80665ZM9.05856 9.05909L8.20135 11.7985L10.941 10.9407L11.7982 8.20175L9.05856 9.05909Z" fill="#2C2E23"/>
</svg>
