<svg width="24" height="24" viewBox="0 0 24 24" fill="none" xmlns="http://www.w3.org/2000/svg">
<path fill-rule="evenodd" clip-rule="evenodd" d="M10.7345 16.8481H4.26147C3.70947 16.8481 3.26147 17.2951 3.26147 17.8481C3.26147 18.4011 3.70947 18.8481 4.26147 18.8481H10.7345C11.2865 18.8481 11.7345 18.4011 11.7345 17.8481C11.7345 17.2951 11.2865 16.8481 10.7345 16.8481Z" fill="#2C2E23"/>
<path fill-rule="evenodd" clip-rule="evenodd" d="M17.5172 14.6274C15.1992 14.6274 14.2952 15.5304 14.2952 17.8494C14.2952 20.1684 15.1992 21.0714 17.5172 21.0714C19.8362 21.0714 20.7392 20.1684 20.7392 17.8494C20.7392 15.5304 19.8362 14.6274 17.5172 14.6274Z" fill="#2C2E23"/>
<path fill-rule="evenodd" clip-rule="evenodd" d="M20.2383 6.35895H13.7673C13.2153 6.35895 12.7673 6.80595 12.7673 7.35895C12.7673 7.91195 13.2153 8.35895 13.7673 8.35895H20.2383C20.7903 8.35895 21.2383 7.91195 21.2383 7.35895C21.2383 6.80595 20.7903 6.35895 20.2383 6.35895Z" fill="#2C2E23"/>
<path fill-rule="evenodd" clip-rule="evenodd" d="M6.98354 10.5805C9.30254 10.5805 10.2055 9.67754 10.2055 7.35754C10.2055 5.03954 9.30254 4.13654 6.98354 4.13654C4.66454 4.13654 3.76154 5.03954 3.76154 7.35754C3.76154 9.67754 4.66454 10.5805 6.98354 10.5805Z" fill="#2C2E23"/>
</svg>
