<?xml version="1.0" encoding="UTF-8"?>
<svg id="_圖層_2" data-name="圖層 2" xmlns="http://www.w3.org/2000/svg" xmlns:xlink="http://www.w3.org/1999/xlink" viewBox="0 0 24 24">
  <defs>
    <style>
      .cls-1 {
        fill: url(#_未命名漸層_26);
        fill-rule: evenodd;
      }

      .cls-2 {
        fill: none;
      }
    </style>
    <linearGradient id="_未命名漸層_26" data-name="未命名漸層 26" x1="4.52" y1="21.16" x2="18.55" y2="7.12" gradientUnits="userSpaceOnUse">
      <stop offset="0" stop-color="#c7e64c"/>
      <stop offset="1" stop-color="#d3e688"/>
    </linearGradient>
  </defs>
  <g id="_圖層_1-2" data-name="圖層 1">
    <path class="cls-1" d="M17.2,17.2h-.1c-.4,0-.8-.3-.8-.8,0-.4,.3-.8,.8-.8h.1c.4,0,.8,.3,.8,.8-.1,.5-.4,.8-.8,.8Zm-1.7-3.4h-.1c-.4,0-.8-.3-.8-.8s.3-.8,.8-.8h.1c.4,0,.8,.3,.8,.8s-.4,.8-.8,.8Zm-4.4,1.7h-1.1v1c0,.4-.3,.8-.8,.8-.4,0-.8-.3-.8-.8v-1h-1c-.4,0-.8-.3-.8-.8,.1-.4,.4-.7,.8-.7h1.1v-1c0-.4,.3-.8,.8-.8,.4,0,.8,.3,.8,.8v1h1.1c.4,0,.8,.3,.8,.8-.2,.4-.5,.7-.9,.7Zm2.5-8.6v-.5c0-1.5-1.2-2.8-2.8-2.7h-1c-.1,0-.3-.1-.4-.2-.1-.1-.1-.2-.2-.4,0-.4-.4-.8-.8-.7-.4,0-.7,.3-.7,.8,0,1.1,.9,2,2,2h1c.7,0,1.2,.6,1.3,1.2v.5c-7.3,0-9.9,2.1-9.9,7.9s2.6,7.9,10,7.9,10-2.1,10-7.9c.2-5.5-2.1-7.6-8.5-7.9Z"/>
    <rect class="cls-2" width="24" height="24"/>
  </g>
</svg>