<svg width="24" height="24" viewBox="0 0 24 24" fill="none" xmlns="http://www.w3.org/2000/svg">
<path fill-rule="evenodd" clip-rule="evenodd" d="M17.1939 17.2308H17.0919C16.6779 17.2308 16.3419 16.8948 16.3419 16.4808C16.3419 16.0668 16.6779 15.7308 17.0919 15.7308H17.1939C17.6079 15.7308 17.9439 16.0668 17.9439 16.4808C17.9439 16.8948 17.6079 17.2308 17.1939 17.2308ZM15.4629 13.8188H15.3609C14.9469 13.8188 14.6109 13.4828 14.6109 13.0688C14.6109 12.6548 14.9469 12.3188 15.3609 12.3188H15.4629C15.8769 12.3188 16.2129 12.6548 16.2129 13.0688C16.2129 13.4828 15.8769 13.8188 15.4629 13.8188ZM11.0649 15.4978H9.9909V16.5358C9.9909 16.9498 9.6549 17.2858 9.2409 17.2858C8.8269 17.2858 8.4909 16.9498 8.4909 16.5358V15.4978H7.4169C7.0029 15.4978 6.6669 15.1618 6.6669 14.7478C6.6669 14.3338 7.0029 13.9978 7.4169 13.9978H8.4909V12.9598C8.4909 12.5458 8.8269 12.2098 9.2409 12.2098C9.6549 12.2098 9.9909 12.5458 9.9909 12.9598V13.9978H11.0649C11.4789 13.9978 11.8149 14.3338 11.8149 14.7478C11.8149 15.1618 11.4789 15.4978 11.0649 15.4978ZM13.5839 6.9038V6.3608C13.5639 4.8518 12.3399 3.5968 10.8139 3.6438H9.7929C9.6499 3.6438 9.5149 3.5888 9.4129 3.4888C9.3089 3.3868 9.2519 3.2518 9.2499 3.1068C9.2459 2.6918 8.8899 2.3388 8.4929 2.3638C8.0789 2.3678 7.7459 2.7068 7.7499 3.1208C7.7609 4.2408 8.6749 5.1438 9.7859 5.1438H10.8279C11.5119 5.1438 12.0749 5.6978 12.0839 6.3718V6.8828C4.7969 6.9148 2.2019 8.9948 2.2019 14.7928C2.2019 20.6348 4.8319 22.7068 12.2509 22.7068C19.6689 22.7068 22.2979 20.6348 22.2979 14.7928C22.2979 9.3138 19.9869 7.1518 13.5839 6.9038Z" fill="black"/>
</svg>
