<svg width="20" height="20" viewBox="0 0 20 20" fill="none" xmlns="http://www.w3.org/2000/svg">
<path fill-rule="evenodd" clip-rule="evenodd" d="M14.9223 8.915H14.9015C14.5565 8.9025 14.2857 8.61416 14.2973 8.26915C14.324 7.47665 13.9365 6.96248 13.2607 6.89331C12.9173 6.85831 12.6673 6.55165 12.7023 6.20831C12.7382 5.86581 13.0465 5.61331 13.3882 5.64998C14.7282 5.78665 15.5957 6.85581 15.5465 8.31081C15.5348 8.64916 15.2573 8.915 14.9223 8.915ZM14.854 2.73665C13.4207 2.27831 11.4365 2.46831 10.1982 3.87331C8.89734 2.47831 6.98066 2.27581 5.55733 2.73748C2.29483 3.78748 1.27733 7.56748 2.20566 10.4667C3.67066 15.0258 8.5415 17.4858 10.2098 17.4858C11.699 17.4858 16.7632 15.0725 18.2115 10.4667C19.1398 7.56831 18.1198 3.78831 14.854 2.73665Z" fill="#2C2E23"/>
</svg>
