<svg width="24" height="24" viewBox="0 0 24 24" fill="none" xmlns="http://www.w3.org/2000/svg">
<path fill-rule="evenodd" clip-rule="evenodd" d="M18.6963 19.696C19.9193 18.473 20.5002 16.4268 20.5002 12.9999C20.5002 9.57301 19.9193 7.52684 18.6963 6.30386C17.4733 5.08089 15.4271 4.49991 12.0002 4.49991C8.57334 4.49991 6.52717 5.08089 5.3042 6.30386C4.08123 7.52684 3.50024 9.57301 3.50024 12.9999C3.50024 16.4268 4.08123 18.473 5.3042 19.696C6.52717 20.9189 8.57334 21.4999 12.0002 21.4999C15.4271 21.4999 17.4733 20.9189 18.6963 19.696ZM19.7569 20.7566C18.0892 22.4244 15.5103 22.9999 12.0002 22.9999C8.49015 22.9999 5.91132 22.4244 4.24354 20.7566C2.57576 19.0888 2.00024 16.51 2.00024 12.9999C2.00024 9.48981 2.57576 6.91098 4.24354 5.2432C5.91132 3.57543 8.49015 2.99991 12.0002 2.99991C15.5103 2.99991 18.0892 3.57543 19.7569 5.2432C21.4247 6.91098 22.0002 9.48981 22.0002 12.9999C22.0002 16.51 21.4247 19.0888 19.7569 20.7566Z" fill="#2C2E23"/>
<path fill-rule="evenodd" clip-rule="evenodd" d="M12.0002 17.645C11.586 17.645 11.2502 17.3092 11.2502 16.895V13C11.2502 12.5858 11.586 12.25 12.0002 12.25C12.4145 12.25 12.7502 12.5858 12.7502 13V16.895C12.7502 17.3092 12.4145 17.645 12.0002 17.645Z" fill="#2C2E23"/>
<path fill-rule="evenodd" clip-rule="evenodd" d="M12.7546 9.5C12.7546 9.91421 12.4189 10.25 12.0046 10.25H11.9956C11.5814 10.25 11.2456 9.91421 11.2456 9.5C11.2456 9.08579 11.5814 8.75 11.9956 8.75H12.0046C12.4189 8.75 12.7546 9.08579 12.7546 9.5Z" fill="#2C2E23"/>
</svg>
