<svg width="24" height="24" viewBox="0 0 24 24" fill="none" xmlns="http://www.w3.org/2000/svg">
<path d="M8.64648 6.6594C9.13637 5.3355 11.0089 5.3355 11.4988 6.6594L12.2429 8.6704C12.3969 9.08663 12.7251 9.4148 13.1413 9.56882L15.1523 10.313C16.4762 10.8028 16.4762 12.6753 15.1523 13.1652L13.1413 13.9094C12.7251 14.0634 12.3969 14.3916 12.2429 14.8078L11.4988 16.8188C11.0089 18.1427 9.13637 18.1427 8.64648 16.8188L7.90234 14.8078C7.74832 14.3916 7.42015 14.0634 7.00392 13.9094L4.99292 13.1652C3.66903 12.6753 3.66903 10.8028 4.99292 10.313L7.00393 9.56882C7.42015 9.4148 7.74832 9.08663 7.90234 8.6704L8.64648 6.6594Z" fill="#2C2E23" fill-opacity="0.5"/>
<path d="M16.3925 16.1372C16.6375 15.4752 17.5737 15.4752 17.8187 16.1372L18.2164 17.212C18.2934 17.4202 18.4575 17.5842 18.6656 17.6613L19.7405 18.059C20.4024 18.3039 20.4024 19.2402 19.7405 19.4851L18.6656 19.8829C18.4575 19.9599 18.2934 20.124 18.2164 20.3321L17.8187 21.407C17.5737 22.0689 16.6375 22.0689 16.3925 21.407L15.9948 20.3321C15.9178 20.124 15.7537 19.9599 15.5456 19.8829L14.4707 19.4851C13.8088 19.2402 13.8088 18.3039 14.4707 18.059L15.5456 17.6613C15.7537 17.5842 15.9178 17.4202 15.9948 17.212L16.3925 16.1372Z" fill="#2C2E23" fill-opacity="0.5"/>
<path d="M14.8483 2.24823C14.9707 1.91726 15.4389 1.91726 15.5613 2.24823L15.8629 3.06315C15.9014 3.16721 15.9834 3.24925 16.0875 3.28775L16.9024 3.5893C17.2334 3.71177 17.2334 4.1799 16.9024 4.30237L16.0875 4.60392C15.9834 4.64242 15.9014 4.72446 15.8629 4.82852L15.5613 5.64344C15.4389 5.97441 14.9707 5.97441 14.8483 5.64344L14.5467 4.82852C14.5082 4.72446 14.4262 4.64242 14.3221 4.60392L13.5072 4.30237C13.1762 4.1799 13.1762 3.71177 13.5072 3.5893L14.3221 3.28775C14.4262 3.24925 14.5082 3.16721 14.5467 3.06315L14.8483 2.24823Z" fill="#2C2E23" fill-opacity="0.5"/>
</svg>
