<svg width="20" height="20" viewBox="0 0 20 20" fill="none" xmlns="http://www.w3.org/2000/svg">
<path fill-rule="evenodd" clip-rule="evenodd" d="M12.4945 10.8333C12.4945 10.3731 12.8676 10 13.3278 10H13.3353C13.7956 10 14.1687 10.3731 14.1687 10.8333C14.1687 11.2936 13.7956 11.6667 13.3353 11.6667H13.3278C12.8676 11.6667 12.4945 11.2936 12.4945 10.8333Z" fill="#2C2E23"/>
<path fill-rule="evenodd" clip-rule="evenodd" d="M9.16199 10.8333C9.16199 10.3731 9.53507 10 9.99532 10H10.0028C10.4631 10 10.8362 10.3731 10.8362 10.8333C10.8362 11.2936 10.4631 11.6667 10.0028 11.6667H9.99532C9.53507 11.6667 9.16199 11.2936 9.16199 10.8333Z" fill="#2C2E23"/>
<path fill-rule="evenodd" clip-rule="evenodd" d="M5.82968 10.8333C5.82968 10.3731 6.20277 10 6.66301 10H6.67051C7.13075 10 7.50385 10.3731 7.50385 10.8333C7.50385 11.2936 7.13075 11.6667 6.67051 11.6667H6.66301C6.20277 11.6667 5.82968 11.2936 5.82968 10.8333Z" fill="#2C2E23"/>
</svg>
