<svg width="24" height="25" viewBox="0 0 24 25" fill="none" xmlns="http://www.w3.org/2000/svg">
<path fill-rule="evenodd" clip-rule="evenodd" d="M15.8279 13.7847H12.9999V16.6087C12.9999 17.0227 12.6639 17.3587 12.2499 17.3587C11.8359 17.3587 11.4999 17.0227 11.4999 16.6087V13.7847H8.67194C8.25794 13.7847 7.92194 13.4487 7.92194 13.0347C7.92194 12.6207 8.25794 12.2847 8.67194 12.2847H11.4999V9.46067C11.4999 9.04667 11.8359 8.71067 12.2499 8.71067C12.6639 8.71067 12.9999 9.04667 12.9999 9.46067V12.2847H15.8279C16.2419 12.2847 16.5779 12.6207 16.5779 13.0347C16.5779 13.4487 16.2419 13.7847 15.8279 13.7847ZM12.2499 2.79767C4.69094 2.79767 2.01294 5.47567 2.01294 13.0347C2.01294 20.5937 4.69094 23.2717 12.2499 23.2717C19.8079 23.2717 22.4869 20.5937 22.4869 13.0347C22.4869 5.47567 19.8079 2.79767 12.2499 2.79767Z" fill="#2C2E23"/>
</svg>
