<svg width="34" height="34" viewBox="0 0 34 34" fill="none" xmlns="http://www.w3.org/2000/svg">
<g clip-path="url(#clip0_429_159)">
<path d="M30.3019 16.9828C30.3113 16.2661 29.923 15.6074 29.2926 15.2617L14.6007 7.18953C13.9426 6.81761 13.1669 6.8633 12.5468 7.28673C11.9154 7.71728 11.5922 8.74222 11.7687 9.48249L13.1402 15.2288C13.281 15.818 13.8084 16.2329 14.4151 16.2303L22.5911 16.2049C23.0098 16.1965 23.3493 16.5361 23.3409 16.9548C23.3397 17.3663 23.0051 17.7009 22.5864 17.7093L14.4027 17.7283C13.796 17.7294 13.266 18.1462 13.1216 18.7363L11.7015 24.5054C11.5291 25.1872 11.7257 25.8678 12.2067 26.3488C12.2633 26.4054 12.327 26.4691 12.3907 26.5185C13.0136 26.9991 13.8295 27.0605 14.526 26.6893L29.2677 18.6962C29.9003 18.3607 30.2926 17.6996 30.3019 16.9828Z" fill="#2C2E23"/>
</g>
<defs>
<clipPath id="clip0_429_159">
<rect width="24" height="24" fill="white" transform="translate(16.9706) rotate(45)"/>
</clipPath>
</defs>
</svg>
