<svg width="20" height="20" viewBox="0 0 20 20" fill="none" xmlns="http://www.w3.org/2000/svg">
<path fill-rule="evenodd" clip-rule="evenodd" d="M7.29187 9.99984C7.29187 11.4932 8.50684 12.7082 10.0002 12.7082C11.4935 12.7082 12.7085 11.4932 12.7085 9.99984C12.7085 8.50651 11.4935 7.29147 10.0002 7.29147C8.50684 7.29147 7.29187 8.50651 7.29187 9.99984ZM8.54184 9.99984C8.54184 9.19567 9.196 8.54151 10.0002 8.54151C10.8043 8.54151 11.4585 9.19567 11.4585 9.99984C11.4585 10.804 10.8043 11.4582 10.0002 11.4582C9.196 11.4582 8.54184 10.804 8.54184 9.99984Z" fill="black"/>
<path fill-rule="evenodd" clip-rule="evenodd" d="M7.31227 15.84C7.31227 17.33 8.51806 18.5417 9.99973 18.5417C11.4814 18.5417 12.6872 17.33 12.6872 15.84C12.6872 15.4875 12.9206 15.315 13.0214 15.2567C13.1206 15.2008 13.3797 15.0883 13.6764 15.2592C14.2972 15.6208 15.0206 15.7158 15.714 15.5308C16.409 15.3442 16.9898 14.8958 17.349 14.2692C18.0881 12.9808 17.6465 11.3267 16.3656 10.5817C16.0665 10.4067 16.0339 10.1167 16.0339 10C16.0339 9.88334 16.0665 9.59334 16.3664 9.41918C17.6465 8.67501 18.0873 7.02084 17.349 5.73084C16.989 5.10334 16.4081 4.65584 15.7131 4.46918C15.0198 4.28584 14.2972 4.38168 13.6772 4.74168C13.3806 4.91251 13.1189 4.79918 13.0214 4.74251C12.9206 4.68501 12.6872 4.51251 12.6872 4.16001C12.6872 2.67001 11.4814 1.45834 9.99973 1.45834C8.51806 1.45834 7.31227 2.67001 7.31227 4.16001C7.31227 4.51251 7.07894 4.68501 6.9781 4.74251C6.87977 4.80168 6.61894 4.91334 6.32394 4.74168C5.7031 4.38168 4.9806 4.28584 4.28644 4.46918C3.59144 4.65584 3.0106 5.10334 2.6506 5.73084C1.91227 7.02084 2.3531 8.67501 3.6331 9.41918C3.9331 9.59334 3.96477 9.88334 3.96477 10C3.96477 10.1158 3.9331 10.4067 3.6331 10.5808C2.3531 11.3267 1.91227 12.9808 2.6506 14.2692C3.00977 14.8958 3.5906 15.3433 4.2856 15.5308C4.9781 15.7158 5.70227 15.62 6.32477 15.2583C6.61894 15.0875 6.87977 15.2008 6.9781 15.2567C7.0781 15.315 7.31227 15.4875 7.31227 15.84ZM7.60061 14.1742C7.30394 14.0033 6.9781 13.9175 6.65227 13.9175C6.3231 13.9175 5.99477 14.0042 5.6956 14.1783C5.36394 14.37 4.9781 14.4217 4.60977 14.3225C4.23894 14.2233 3.92727 13.9833 3.7356 13.6475C3.33644 12.9533 3.5731 12.0617 4.26227 11.6617C4.85894 11.3142 5.21477 10.6925 5.21477 10C5.21477 9.30751 4.85894 8.68584 4.26144 8.33834C3.57394 7.93751 3.33727 7.04751 3.73477 6.35251C3.92727 6.01668 4.23894 5.77584 4.60977 5.67668C4.97977 5.58001 5.36477 5.63084 5.69644 5.82251C6.29227 6.16918 7.00477 6.17001 7.60144 5.82668C8.2031 5.48001 8.56223 4.85751 8.56223 4.16001C8.56223 3.35918 9.20723 2.70834 9.99973 2.70834C10.7922 2.70834 11.4372 3.35918 11.4372 4.16001C11.4372 4.85668 11.7956 5.47918 12.3972 5.82584C12.9947 6.17001 13.7072 6.16751 14.3047 5.82251C14.6356 5.63084 15.0197 5.57834 15.3897 5.67668C15.7614 5.77584 16.0723 6.01668 16.2647 6.35251C16.6623 7.04751 16.4265 7.93834 15.7373 8.33834C15.1406 8.68584 14.7847 9.30751 14.7847 10C14.7847 10.6925 15.1406 11.3142 15.7373 11.6617C16.4265 12.0617 16.6631 12.9533 16.2647 13.6475C16.0723 13.9833 15.7614 14.2233 15.3897 14.3225C15.0206 14.4217 14.6356 14.37 14.3047 14.1783C13.7089 13.8317 12.9956 13.8308 12.3981 14.1742C11.7964 14.52 11.4372 15.1433 11.4372 15.84C11.4372 16.6408 10.7922 17.2917 9.99973 17.2917C9.20723 17.2917 8.56223 16.6408 8.56223 15.84C8.56223 15.1425 8.2031 14.52 7.60061 14.1742Z" fill="black"/>
</svg>
