<svg width="24" height="24" viewBox="0 0 24 24" fill="none" xmlns="http://www.w3.org/2000/svg">
<path fill-rule="evenodd" clip-rule="evenodd" d="M6.36487 13.3244C6.77908 13.3244 7.11487 13.6602 7.11487 14.0744C7.11487 16.7912 9.31708 18.9934 12.0339 18.9934C14.7517 18.9934 16.9539 16.7911 16.9539 14.0744C16.9539 13.6602 17.2897 13.3244 17.7039 13.3244C18.1181 13.3244 18.4539 13.6602 18.4539 14.0744C18.4539 17.6197 15.58 20.4934 12.0339 20.4934C8.48865 20.4934 5.61487 17.6196 5.61487 14.0744C5.61487 13.6602 5.95065 13.3244 6.36487 13.3244Z" fill="#2C2E23"/>
<path fill-rule="evenodd" clip-rule="evenodd" d="M5.61475 8.565C5.61475 5.01978 8.48853 2.146 12.0337 2.146C15.5799 2.146 18.4537 5.0197 18.4537 8.565V10.819C18.4537 11.2332 18.118 11.569 17.7037 11.569C17.2895 11.569 16.9537 11.2332 16.9537 10.819V8.565C16.9537 5.8483 14.7516 3.646 12.0337 3.646C9.31696 3.646 7.11475 5.84821 7.11475 8.565V10.819C7.11475 11.2332 6.77896 11.569 6.36475 11.569C5.95053 11.569 5.61475 11.2332 5.61475 10.819V8.565Z" fill="#2C2E23"/>
<path fill-rule="evenodd" clip-rule="evenodd" d="M12.0338 18.9937C12.448 18.9937 12.7838 19.3295 12.7838 19.7437V21.8957C12.7838 22.3099 12.448 22.6457 12.0338 22.6457C11.6196 22.6457 11.2838 22.3099 11.2838 21.8957V19.7437C11.2838 19.3295 11.6196 18.9937 12.0338 18.9937Z" fill="#2C2E23"/>
<path fill-rule="evenodd" clip-rule="evenodd" d="M4.15002 14.0744C4.15002 13.6602 4.48581 13.3244 4.90002 13.3244H19.168C19.5822 13.3244 19.918 13.6602 19.918 14.0744C19.918 14.4886 19.5822 14.8244 19.168 14.8244H4.90002C4.48581 14.8244 4.15002 14.4886 4.15002 14.0744Z" fill="#2C2E23"/>
</svg>
