<svg width="36" height="36" viewBox="0 0 36 36" fill="none" xmlns="http://www.w3.org/2000/svg">
<path d="M18 36C27.9411 36 36 27.9411 36 18C36 8.05888 27.9411 0 18 0C8.05887 0 0 8.05888 0 18C0 27.9411 8.05887 36 18 36Z" fill="#FFE3E3"/>
<path d="M30.2008 31.2299C26.8811 28.5024 22.6318 26.8651 18.0001 26.8651C13.3679 26.8651 9.11819 28.5027 5.79839 31.2307C5.79839 31.2307 10.1561 35.9999 18.0001 35.9999C25.8441 35.9999 30.2008 31.2299 30.2008 31.2299Z" fill="#5B0000"/>
<path d="M11.6492 23.033V19.317C11.6492 15.8245 14.5066 12.9671 17.9996 12.9671C21.492 12.9671 24.3495 15.8245 24.3495 19.317V23.033" stroke="#FF7373" stroke-width="8.96317" stroke-miterlimit="10"/>
</svg>
