<svg width="36" height="36" viewBox="0 0 36 36" fill="none" xmlns="http://www.w3.org/2000/svg">
<path d="M18 36C27.9411 36 36 27.9411 36 18C36 8.05887 27.9411 0 18 0C8.05887 0 0 8.05887 0 18C0 27.9411 8.05887 36 18 36Z" fill="#E6F9FF"/>
<path d="M30.2009 31.2299C26.8812 28.5025 22.6319 26.8652 18.0002 26.8652C13.368 26.8652 9.1183 28.5028 5.79849 31.2307C5.79849 31.2307 10.1562 36 18.0002 36C25.8442 36 30.2009 31.2299 30.2009 31.2299Z" fill="#061E4F"/>
<path d="M29.8576 12.1922C23.5934 12.1922 18.5154 17.2703 18.5154 23.5344C18.5154 17.2703 13.4373 12.1922 7.1732 12.1922" stroke="#76A7FF" stroke-width="8.96317" stroke-miterlimit="10"/>
</svg>
