<svg width="36" height="36" viewBox="0 0 36 36" fill="none" xmlns="http://www.w3.org/2000/svg">
<path d="M18 36C27.9411 36 36 27.9411 36 18C36 8.05887 27.9411 0 18 0C8.05887 0 0 8.05887 0 18C0 27.9411 8.05887 36 18 36Z" fill="#DEFFDF"/>
<path d="M30.2013 31.2299C26.8816 28.5025 22.6323 26.8651 18.0006 26.8651C13.3684 26.8651 9.11868 28.5028 5.79887 31.2307C5.79887 31.2307 10.1565 36 18.0006 36C25.8446 36 30.2013 31.2299 30.2013 31.2299Z" fill="#007203"/>
<path d="M5.56894 18.8809H11.7011C11.7011 16.322 13.7755 14.2476 16.3344 14.2476H20.4782C23.0371 14.2476 25.1115 16.322 25.1115 18.8809H30.431" stroke="#75C675" stroke-width="8.96317" stroke-miterlimit="10"/>
</svg>
