<svg width="73" height="73" viewBox="0 0 73 73" fill="none" xmlns="http://www.w3.org/2000/svg">
<path d="M36.858 72.5392C56.7657 72.5392 72.904 56.4008 72.904 36.4932C72.904 16.5855 56.7657 0.447205 36.858 0.447205C16.9503 0.447205 0.812012 16.5855 0.812012 36.4932C0.812012 56.4008 16.9503 72.5392 36.858 72.5392Z" fill="#E6F9FF"/>
<path d="M61.291 62.9869C54.6432 57.5251 46.1337 54.2462 36.8584 54.2462C27.5822 54.2462 19.0719 57.5257 12.4238 62.9885C12.4238 62.9885 21.1503 72.5392 36.8584 72.5392C52.5665 72.5392 61.291 62.9869 61.291 62.9869Z" fill="#061E4F"/>
<path d="M60.6035 24.8628C48.0592 24.8628 37.8901 35.0319 37.8901 47.5761C37.8901 35.0319 27.721 24.8628 15.1768 24.8628" stroke="#76A7FF" stroke-width="8.96317" stroke-miterlimit="10"/>
</svg>
