<svg width="73" height="73" viewBox="0 0 73 73" fill="none" xmlns="http://www.w3.org/2000/svg">
<path d="M36.9061 72.2541C56.8138 72.2541 72.9521 56.1158 72.9521 36.2082C72.9521 16.3005 56.8138 0.16217 36.9061 0.16217C16.9985 0.16217 0.860107 16.3005 0.860107 36.2082C0.860107 56.1158 16.9985 72.2541 36.9061 72.2541Z" fill="#F2F2F2"/>
<path d="M61.3398 62.7017C54.692 57.2398 46.1825 53.961 36.9072 53.961C27.631 53.961 19.1208 57.2405 12.4727 62.7033C12.4727 62.7033 21.1991 72.254 36.9072 72.254C52.6153 72.254 61.3398 62.7017 61.3398 62.7017Z" fill="#2F3135"/>
<path d="M36.9064 43.6458C43.7446 43.6458 49.2881 38.1023 49.2881 31.2641C49.2881 24.4258 43.7446 18.8823 36.9064 18.8823C30.0682 18.8823 24.5247 24.4258 24.5247 31.2641C24.5247 38.1023 30.0682 43.6458 36.9064 43.6458Z" stroke="#8C8C8C" stroke-width="8.96317" stroke-miterlimit="10"/>
</svg>
