<svg width="73" height="73" viewBox="0 0 73 73" fill="none" xmlns="http://www.w3.org/2000/svg">
<path d="M36.9224 72.7013C56.8301 72.7013 72.9684 56.563 72.9684 36.6554C72.9684 16.7477 56.8301 0.609375 36.9224 0.609375C17.0148 0.609375 0.876465 16.7477 0.876465 36.6554C0.876465 56.563 17.0148 72.7013 36.9224 72.7013Z" fill="#EAD7FF"/>
<path d="M25.5657 45.9339C25.5657 33.3896 35.7348 23.2205 48.279 23.2205" stroke="#AF61F2" stroke-width="8.96317" stroke-miterlimit="10"/>
<path d="M61.3557 63.1489C54.7079 57.6871 46.1984 54.4082 36.9231 54.4082C27.6469 54.4082 19.1366 57.6877 12.4885 63.1505C12.4885 63.1505 21.215 72.7012 36.9231 72.7012C52.6312 72.7012 61.3557 63.1489 61.3557 63.1489Z" fill="#53288C"/>
</svg>
