<svg width="73" height="74" viewBox="0 0 73 74" fill="none" xmlns="http://www.w3.org/2000/svg">
<path d="M36.9632 73.0343C56.8709 73.0343 73.0092 56.896 73.0092 36.9883C73.0092 17.0807 56.8709 0.942322 36.9632 0.942322C17.0556 0.942322 0.917236 17.0807 0.917236 36.9883C0.917236 56.896 17.0556 73.0343 36.9632 73.0343Z" fill="#E6F9FF"/>
<path d="M61.397 63.4819C54.7491 58.02 46.2396 54.7412 36.9643 54.7412C27.6881 54.7412 19.1779 58.0207 12.5298 63.4835C12.5298 63.4835 21.2563 73.0342 36.9643 73.0342C52.6724 73.0342 61.397 63.4819 61.397 63.4819Z" fill="#061E4F"/>
<path d="M50.7749 44.6855L44.849 29.1266C41.8997 21.8111 31.6046 21.6409 28.4149 28.8548L27.3031 31.3693L21.4153 44.6855" stroke="#76A7FF" stroke-width="8.96317" stroke-miterlimit="10"/>
</svg>
