<svg width="73" height="73" viewBox="0 0 73 73" fill="none" xmlns="http://www.w3.org/2000/svg">
<path d="M36.9303 72.7013C56.8379 72.7013 72.9763 56.563 72.9763 36.6554C72.9763 16.7477 56.8379 0.609375 36.9303 0.609375C17.0226 0.609375 0.884277 16.7477 0.884277 36.6554C0.884277 56.563 17.0226 72.7013 36.9303 72.7013Z" fill="#E6F9FF"/>
<path d="M48.2869 42.7942C35.7426 42.7942 25.5735 32.625 25.5735 20.0808" stroke="#76A7FF" stroke-width="8.96317" stroke-miterlimit="10"/>
<path d="M61.3643 63.1489C54.7164 57.6871 46.2069 54.4082 36.9316 54.4082C27.6554 54.4082 19.1452 57.6877 12.4971 63.1505C12.4971 63.1505 21.2235 72.7012 36.9316 72.7012C52.6397 72.7012 61.3643 63.1489 61.3643 63.1489Z" fill="#061E4F"/>
</svg>
