<svg width="73" height="73" viewBox="0 0 73 73" fill="none" xmlns="http://www.w3.org/2000/svg">
<path d="M36.898 72.7013C56.8057 72.7013 72.944 56.563 72.944 36.6554C72.944 16.7477 56.8057 0.609375 36.898 0.609375C16.9904 0.609375 0.852051 16.7477 0.852051 36.6554C0.852051 56.563 16.9904 72.7013 36.898 72.7013Z" fill="#E6F9FF"/>
<path d="M61.3308 63.1489C54.683 57.6871 46.1735 54.4082 36.8982 54.4082C27.622 54.4082 19.1117 57.6877 12.4636 63.1505C12.4636 63.1505 21.1901 72.7012 36.8982 72.7012C52.6062 72.7012 61.3308 63.1489 61.3308 63.1489Z" fill="#061E4F"/>
<path d="M49.6133 24.2247V31.6661C49.6133 38.66 43.8911 44.3822 36.8962 44.3822C29.9024 44.3822 24.1802 38.66 24.1802 31.6661V24.2247" stroke="#76A7FF" stroke-width="8.96317" stroke-miterlimit="10"/>
</svg>
