<svg width="73" height="73" viewBox="0 0 73 73" fill="none" xmlns="http://www.w3.org/2000/svg">
<path d="M36.9542 72.092C56.8618 72.092 73.0002 55.9536 73.0002 36.046C73.0002 16.1383 56.8618 0 36.9542 0C17.0465 0 0.908203 16.1383 0.908203 36.046C0.908203 55.9536 17.0465 72.092 36.9542 72.092Z" fill="#DEFFDF"/>
<path d="M61.3875 62.5397C54.7396 57.0779 46.2301 53.799 36.9548 53.799C27.6786 53.799 19.1684 57.0785 12.5203 62.5413C12.5203 62.5413 21.2467 72.092 36.9548 72.092C52.6629 72.092 61.3875 62.5397 61.3875 62.5397Z" fill="#007203"/>
<path d="M42.2576 41.003L54.3915 41.1899L48.1087 21.7805L37.8762 21.605H37.2919L27.0593 21.7805L20.7766 41.1899L32.9104 41.003H42.2576Z" stroke="#75C675" stroke-width="7.43968" stroke-miterlimit="10"/>
</svg>
