<svg width="73" height="73" viewBox="0 0 73 73" fill="none" xmlns="http://www.w3.org/2000/svg">
<path d="M36.0685 72.1589C55.9761 72.1589 72.1145 56.0205 72.1145 36.1129C72.1145 16.2052 55.9761 0.0668945 36.0685 0.0668945C16.1608 0.0668945 0.0224609 16.2052 0.0224609 36.1129C0.0224609 56.0205 16.1608 72.1589 36.0685 72.1589Z" fill="#D7DFFF"/>
<path d="M60.5024 62.6065C53.8546 57.1447 45.3451 53.8658 36.0698 53.8658C26.7936 53.8658 18.2834 57.1453 11.6353 62.6081C11.6353 62.6081 20.3617 72.1589 36.0698 72.1589C51.7779 72.1589 60.5024 62.6065 60.5024 62.6065Z" fill="#192866"/>
<path d="M46.927 31.366C46.927 24.9974 41.7643 19.8347 35.3956 19.8347C29.027 19.8347 23.8643 24.9974 23.8643 31.366C23.8643 37.7346 29.027 42.8975 35.3956 42.8975" stroke="#525FA3" stroke-width="7.43968" stroke-miterlimit="10"/>
</svg>
