<svg width="73" height="73" viewBox="0 0 73 73" fill="none" xmlns="http://www.w3.org/2000/svg">
<path d="M36.255 72.5392C56.1627 72.5392 72.301 56.4008 72.301 36.4932C72.301 16.5855 56.1627 0.447205 36.255 0.447205C16.3474 0.447205 0.208984 16.5855 0.208984 36.4932C0.208984 56.4008 16.3474 72.5392 36.255 72.5392Z" fill="#E6F9FF"/>
<path d="M52.3161 34.683C43.446 25.8129 29.0647 25.8129 20.1946 34.683" stroke="#76A7FF" stroke-width="8.96317" stroke-miterlimit="10"/>
<path d="M60.9214 62.9869C54.2736 57.5251 45.764 54.2462 36.4888 54.2462C27.2125 54.2462 18.7023 57.5257 12.0542 62.9885C12.0542 62.9885 20.7807 72.5392 36.4888 72.5392C52.1968 72.5392 60.9214 62.9869 60.9214 62.9869Z" fill="#061E4F"/>
</svg>
