<svg width="73" height="73" viewBox="0 0 73 73" fill="none" xmlns="http://www.w3.org/2000/svg">
<path d="M36.9384 72.2541C56.846 72.2541 72.9843 56.1157 72.9843 36.2081C72.9843 16.3005 56.846 0.162109 36.9384 0.162109C17.0307 0.162109 0.892334 16.3005 0.892334 36.2081C0.892334 56.1157 17.0307 72.2541 36.9384 72.2541Z" fill="#D7DFFF"/>
<path d="M61.372 62.7016C54.7242 57.2398 46.2147 53.9609 36.9394 53.9609C27.6632 53.9609 19.153 57.2404 12.5049 62.7032C12.5049 62.7032 21.2314 72.254 36.9394 72.254C52.6475 72.254 61.372 62.7016 61.372 62.7016Z" fill="#192866"/>
<path d="M28.1111 39.6152C32.6144 44.1185 39.9156 44.1185 44.4189 39.6152C48.9222 35.1119 48.9222 27.8106 44.4189 23.3073C39.9157 18.804 32.6144 18.8041 28.1111 23.3073" stroke="#525FA3" stroke-width="7.43968" stroke-miterlimit="10"/>
</svg>
