<svg width="73" height="73" viewBox="0 0 73 73" fill="none" xmlns="http://www.w3.org/2000/svg">
<path d="M36.7198 72.1589C56.6275 72.1589 72.7658 56.0205 72.7658 36.1129C72.7658 16.2052 56.6275 0.0668945 36.7198 0.0668945C16.8122 0.0668945 0.673828 16.2052 0.673828 36.1129C0.673828 56.0205 16.8122 72.1589 36.7198 72.1589Z" fill="#DEFFDF"/>
<path d="M61.1538 62.6065C54.506 57.1447 45.9965 53.8658 36.7212 53.8658C27.445 53.8658 18.9347 57.1453 12.2866 62.6081C12.2866 62.6081 21.0131 72.1589 36.7212 72.1589C52.4292 72.1589 61.1538 62.6065 61.1538 62.6065Z" fill="#007203"/>
<path d="M21.364 26.3025L36.7199 41.6583L52.0758 26.3025" stroke="#75C675" stroke-width="7.43968" stroke-miterlimit="10"/>
</svg>
