<svg width="73" height="73" viewBox="0 0 73 73" fill="none" xmlns="http://www.w3.org/2000/svg">
<path d="M36.3832 72.1589C56.2908 72.1589 72.4291 56.0205 72.4291 36.1129C72.4291 16.2052 56.2908 0.0668945 36.3832 0.0668945C16.4755 0.0668945 0.337158 16.2052 0.337158 36.1129C0.337158 56.0205 16.4755 72.1589 36.3832 72.1589Z" fill="#DEFFDF"/>
<path d="M60.8166 62.6065C54.1688 57.1447 45.6593 53.8658 36.384 53.8658C27.1078 53.8658 18.5976 57.1453 11.9495 62.6081C11.9495 62.6081 20.6759 72.1589 36.384 72.1589C52.0921 72.1589 60.8166 62.6065 60.8166 62.6065Z" fill="#007203"/>
<path d="M51.7391 41.3901L36.3832 26.0342L21.0273 41.3901" stroke="#75C675" stroke-width="7.43968" stroke-miterlimit="10"/>
</svg>
