<svg width="73" height="73" viewBox="0 0 73 73" fill="none" xmlns="http://www.w3.org/2000/svg">
<path d="M36.858 72.092C56.7657 72.092 72.904 55.9536 72.904 36.046C72.904 16.1383 56.7657 0 36.858 0C16.9503 0 0.812012 16.1383 0.812012 36.046C0.812012 55.9536 16.9503 72.092 36.858 72.092Z" fill="#DEFFDF"/>
<path d="M61.291 62.5397C54.6432 57.0779 46.1337 53.799 36.8584 53.799C27.5822 53.799 19.0719 57.0785 12.4238 62.5413C12.4238 62.5413 21.1503 72.092 36.8584 72.092C52.5665 72.092 61.291 62.5397 61.291 62.5397Z" fill="#007203"/>
<path d="M60.6035 24.6893C48.0592 24.6893 37.8901 34.8585 37.8901 47.4027C37.8901 34.8584 27.721 24.6893 15.1768 24.6893" stroke="#75C675" stroke-width="8.96317" stroke-miterlimit="10"/>
</svg>
