<svg width="73" height="73" viewBox="0 0 73 73" fill="none" xmlns="http://www.w3.org/2000/svg">
<path d="M36.9542 72.5392C56.8618 72.5392 73.0002 56.4008 73.0002 36.4932C73.0002 16.5855 56.8618 0.447205 36.9542 0.447205C17.0465 0.447205 0.908203 16.5855 0.908203 36.4932C0.908203 56.4008 17.0465 72.5392 36.9542 72.5392Z" fill="#FFF1E6"/>
<path d="M61.3875 62.9869C54.7396 57.5251 46.2301 54.2462 36.9548 54.2462C27.6786 54.2462 19.1684 57.5257 12.5203 62.9885C12.5203 62.9885 21.2467 72.5392 36.9548 72.5392C52.6629 72.5392 61.3875 62.9869 61.3875 62.9869Z" fill="#CC6111"/>
<path d="M42.2576 41.4502L54.3915 41.6371L48.1087 22.2277L37.8762 22.0522H37.2919L27.0593 22.2277L20.7766 41.6371L32.9104 41.4502H42.2576Z" stroke="#FFAA64" stroke-width="7.43968" stroke-miterlimit="10"/>
</svg>
