<svg width="73" height="73" viewBox="0 0 73 73" fill="none" xmlns="http://www.w3.org/2000/svg">
<path d="M36.9144 72.2541C56.8221 72.2541 72.9604 56.1158 72.9604 36.2082C72.9604 16.3005 56.8221 0.16217 36.9144 0.16217C17.0068 0.16217 0.868408 16.3005 0.868408 36.2082C0.868408 56.1158 17.0068 72.2541 36.9144 72.2541Z" fill="#FFE3E3"/>
<path d="M48.271 45.4867C48.271 32.9424 38.1018 22.7733 25.5576 22.7733" stroke="#FF7373" stroke-width="8.96317" stroke-miterlimit="10"/>
<path d="M61.3477 62.7017C54.6998 57.2398 46.1903 53.961 36.915 53.961C27.6388 53.961 19.1286 57.2405 12.4805 62.7033C12.4805 62.7033 21.2069 72.254 36.915 72.254C52.6231 72.254 61.3477 62.7017 61.3477 62.7017Z" fill="#5B0000"/>
</svg>
