<svg width="73" height="73" viewBox="0 0 73 73" fill="none" xmlns="http://www.w3.org/2000/svg">
<path d="M36.2071 72.5392C56.1148 72.5392 72.2531 56.4009 72.2531 36.4933C72.2531 16.5856 56.1148 0.447266 36.2071 0.447266C16.2995 0.447266 0.161133 16.5856 0.161133 36.4933C0.161133 56.4009 16.2995 72.5392 36.2071 72.5392Z" fill="#EAD7FF"/>
<path d="M60.6399 62.9869C53.9921 57.5251 45.4825 54.2463 36.2073 54.2463C26.931 54.2463 18.4208 57.5257 11.7727 62.9885C11.7727 62.9885 20.4992 72.5393 36.2073 72.5393C51.9153 72.5393 60.6399 62.9869 60.6399 62.9869Z" fill="#53288C"/>
<path d="M13.4927 42.9872C26.0369 42.9872 36.206 32.818 36.206 20.2738C36.206 32.8181 46.3752 42.9872 58.9194 42.9872" stroke="#AF61F2" stroke-width="8.96317" stroke-miterlimit="10"/>
</svg>
