<svg width="73" height="73" viewBox="0 0 73 73" fill="none" xmlns="http://www.w3.org/2000/svg">
<path d="M36.0685 72.606C55.9761 72.606 72.1145 56.4677 72.1145 36.56C72.1145 16.6524 55.9761 0.514038 36.0685 0.514038C16.1608 0.514038 0.0224609 16.6524 0.0224609 36.56C0.0224609 56.4677 16.1608 72.606 36.0685 72.606Z" fill="#EAD7FF"/>
<path d="M60.5024 63.0536C53.8546 57.5918 45.3451 54.313 36.0698 54.313C26.7936 54.313 18.2834 57.5925 11.6353 63.0553C11.6353 63.0553 20.3617 72.606 36.0698 72.606C51.7779 72.606 60.5024 63.0536 60.5024 63.0536Z" fill="#53288C"/>
<path d="M46.927 31.8131C46.927 25.4445 41.7643 20.2817 35.3956 20.2817C29.027 20.2817 23.8643 25.4445 23.8643 31.8131C23.8643 38.1817 29.027 43.3446 35.3956 43.3446" stroke="#AF61F2" stroke-width="7.43968" stroke-miterlimit="10"/>
</svg>
