<svg width="73" height="74" viewBox="0 0 73 74" fill="none" xmlns="http://www.w3.org/2000/svg">
<path d="M36.9278 73.0343C56.8355 73.0343 72.9738 56.896 72.9738 36.9884C72.9738 17.0807 56.8355 0.942383 36.9278 0.942383C17.0202 0.942383 0.881836 17.0807 0.881836 36.9884C0.881836 56.896 17.0202 73.0343 36.9278 73.0343Z" fill="#FFC7D4"/>
<path d="M61.3616 63.4819C54.7137 58.0201 46.2042 54.7413 36.9289 54.7413C27.6527 54.7413 19.1425 58.0207 12.4944 63.4835C12.4944 63.4835 21.2209 73.0343 36.9289 73.0343C52.637 73.0343 61.3616 63.4819 61.3616 63.4819Z" fill="#BC133C"/>
<path d="M12.0339 38.7524H24.3139C24.3139 33.6281 28.4681 29.4739 33.5924 29.4739H41.8905C47.0148 29.4739 51.1689 33.6281 51.1689 38.7524H61.8215" stroke="#FF4D6F" stroke-width="8.96317" stroke-miterlimit="10"/>
</svg>
