<svg width="74" height="74" viewBox="0 0 74 74" fill="none" xmlns="http://www.w3.org/2000/svg">
<path d="M37.033 73.0343C56.9407 73.0343 73.0791 56.896 73.0791 36.9883C73.0791 17.0807 56.9407 0.942322 37.033 0.942322C17.1254 0.942322 0.987061 17.0807 0.987061 36.9883C0.987061 56.896 17.1254 73.0343 37.033 73.0343Z" fill="#FFF1E6"/>
<path d="M61.467 63.4819C54.8192 58.02 46.3097 54.7412 37.0344 54.7412C27.7582 54.7412 19.248 58.0207 12.5999 63.4835C12.5999 63.4835 21.3263 73.0342 37.0344 73.0342C52.7425 73.0342 61.467 63.4819 61.467 63.4819Z" fill="#CC6111"/>
<path d="M24.4673 30.3253C24.4673 23.4141 30.1219 17.7595 37.033 17.7595C37.465 17.7595 37.892 17.7816 38.3131 17.8247C46.8234 18.6959 50.5731 29.1518 45.1082 35.7335L35.0925 47.7959" stroke="#FFAA64" stroke-width="8.96317" stroke-miterlimit="10"/>
</svg>
