<svg width="73" height="73" viewBox="0 0 73 73" fill="none" xmlns="http://www.w3.org/2000/svg">
<path d="M36.0572 72.1056C55.9649 72.1056 72.1032 55.9673 72.1032 36.0597C72.1032 16.152 55.9649 0.0136719 36.0572 0.0136719C16.1496 0.0136719 0.0112305 16.152 0.0112305 36.0597C0.0112305 55.9673 16.1496 72.1056 36.0572 72.1056Z" fill="#D7DFFF"/>
<path d="M60.491 62.5532C53.8431 57.0914 45.3336 53.8126 36.0583 53.8126C26.7821 53.8126 18.2719 57.092 11.6238 62.5548C11.6238 62.5548 20.3503 72.1056 36.0583 72.1056C51.7664 72.1056 60.491 62.5532 60.491 62.5532Z" fill="#192866"/>
<path d="M12.2446 26.1141L26.005 40.3519C27.443 41.8399 29.9438 41.298 30.637 39.3483L33.4321 31.487C34.311 29.0148 37.8073 29.0148 38.6863 31.487L41.4915 39.3767C42.1959 41.3035 44.6786 41.8323 46.1093 40.3519L59.8697 26.1142" stroke="#525FA3" stroke-width="7.43968" stroke-miterlimit="10"/>
</svg>
