<svg width="73" height="73" viewBox="0 0 73 73" fill="none" xmlns="http://www.w3.org/2000/svg">
<path d="M36.7311 72.5529C56.6387 72.5529 72.7771 56.4146 72.7771 36.5069C72.7771 16.5993 56.6387 0.460938 36.7311 0.460938C16.8234 0.460938 0.685059 16.5993 0.685059 36.5069C0.685059 56.4146 16.8234 72.5529 36.7311 72.5529Z" fill="#FFC7D4"/>
<path d="M61.165 63.0005C54.5172 57.5387 46.0077 54.2598 36.7324 54.2598C27.4562 54.2598 18.9459 57.5393 12.2979 63.0021C12.2979 63.0021 21.0243 72.5528 36.7324 72.5528C52.4405 72.5528 61.165 63.0005 61.165 63.0005Z" fill="#BC133C"/>
<path d="M61.0088 41.6508L47.2485 27.413C45.8104 25.9251 43.3097 26.4669 42.6164 28.4166L39.8214 36.278C38.9424 38.7502 35.4462 38.7502 34.5671 36.278L31.7619 28.3883C31.0576 26.4614 28.5749 25.9326 27.1441 27.413L13.3838 41.6508" stroke="#FF4D6F" stroke-width="7.43968" stroke-miterlimit="10"/>
</svg>
