<svg width="73" height="73" viewBox="0 0 73 73" fill="none" xmlns="http://www.w3.org/2000/svg">
<path d="M36.7198 72.1588C56.6275 72.1588 72.7658 56.0205 72.7658 36.1128C72.7658 16.2052 56.6275 0.066864 36.7198 0.066864C16.8122 0.066864 0.673828 16.2052 0.673828 36.1128C0.673828 56.0205 16.8122 72.1588 36.7198 72.1588Z" fill="#FFE3E3"/>
<path d="M61.1538 62.6064C54.506 57.1446 45.9965 53.8658 36.7212 53.8658C27.445 53.8658 18.9347 57.1453 12.2866 62.608C12.2866 62.608 21.0131 72.1588 36.7212 72.1588C52.4292 72.1588 61.1538 62.6064 61.1538 62.6064Z" fill="#5B0000"/>
<path d="M21.364 26.3025L36.7199 41.6583L52.0758 26.3025" stroke="#FF7373" stroke-width="7.43968" stroke-miterlimit="10"/>
</svg>
