<svg width="73" height="73" viewBox="0 0 73 73" fill="none" xmlns="http://www.w3.org/2000/svg">
<path d="M36.7311 72.1056C56.6387 72.1056 72.7771 55.9673 72.7771 36.0597C72.7771 16.152 56.6387 0.0136719 36.7311 0.0136719C16.8234 0.0136719 0.685059 16.152 0.685059 36.0597C0.685059 55.9673 16.8234 72.1056 36.7311 72.1056Z" fill="#F2F2F2"/>
<path d="M61.165 62.5532C54.5172 57.0914 46.0077 53.8126 36.7324 53.8126C27.4562 53.8126 18.9459 57.092 12.2979 62.5548C12.2979 62.5548 21.0243 72.1056 36.7324 72.1056C52.4405 72.1056 61.165 62.5532 61.165 62.5532Z" fill="#2F3135"/>
<path d="M61.0088 41.2035L47.2485 26.9657C45.8104 25.4778 43.3097 26.0196 42.6164 27.9693L39.8214 35.8307C38.9424 38.3029 35.4462 38.3029 34.5671 35.8307L31.7619 27.941C31.0576 26.0141 28.5749 25.4853 27.1441 26.9657L13.3838 41.2035" stroke="#8C8C8C" stroke-width="7.43968" stroke-miterlimit="10"/>
</svg>
