<svg width="73" height="73" viewBox="0 0 73 73" fill="none" xmlns="http://www.w3.org/2000/svg">
<path d="M36.8902 72.2541C56.7979 72.2541 72.9362 56.1157 72.9362 36.2081C72.9362 16.3005 56.7979 0.162109 36.8902 0.162109C16.9826 0.162109 0.844238 16.3005 0.844238 36.2081C0.844238 56.1157 16.9826 72.2541 36.8902 72.2541Z" fill="#D7DFFF"/>
<path d="M61.323 62.7016C54.6752 57.2398 46.1657 53.9609 36.8904 53.9609C27.6142 53.9609 19.1039 57.2404 12.4558 62.7032C12.4558 62.7032 21.1823 72.254 36.8904 72.254C52.5984 72.254 61.323 62.7016 61.323 62.7016Z" fill="#192866"/>
<path d="M24.1724 46.2869V38.8455C24.1724 31.8516 29.8946 26.1294 36.8894 26.1294C43.8832 26.1294 49.6055 31.8516 49.6055 38.8455V46.2869" stroke="#525FA3" stroke-width="8.96317" stroke-miterlimit="10"/>
</svg>
