<svg width="73" height="73" viewBox="0 0 73 73" fill="none" xmlns="http://www.w3.org/2000/svg">
<path d="M36.046 72.092C55.9536 72.092 72.092 55.9536 72.092 36.046C72.092 16.1383 55.9536 0 36.046 0C16.1383 0 0 16.1383 0 36.046C0 55.9536 16.1383 72.092 36.046 72.092Z" fill="#FFE3E3"/>
<path d="M60.4797 62.5395C53.8319 57.0777 45.3224 53.7989 36.0471 53.7989C26.7709 53.7989 18.2606 57.0783 11.6125 62.5411C11.6125 62.5411 20.339 72.0919 36.0471 72.0919C51.7552 72.0919 60.4797 62.5395 60.4797 62.5395Z" fill="#5B0000"/>
<path d="M48.6118 46.8536V29.3829C48.6118 22.4718 42.9572 16.8172 36.046 16.8172C29.1349 16.8172 23.4802 22.4718 23.4802 29.3829" stroke="#FF7373" stroke-width="8.96317" stroke-miterlimit="10"/>
</svg>
