<svg width="73" height="73" viewBox="0 0 73 73" fill="none" xmlns="http://www.w3.org/2000/svg">
<path d="M36.9144 72.7013C56.8221 72.7013 72.9604 56.563 72.9604 36.6554C72.9604 16.7477 56.8221 0.609375 36.9144 0.609375C17.0068 0.609375 0.868408 16.7477 0.868408 36.6554C0.868408 56.563 17.0068 72.7013 36.9144 72.7013Z" fill="#FFF1E6"/>
<path d="M48.271 45.9339C48.271 33.3896 38.1018 23.2205 25.5576 23.2205" stroke="#FFAA64" stroke-width="8.96317" stroke-miterlimit="10"/>
<path d="M61.3477 63.1489C54.6998 57.6871 46.1903 54.4082 36.915 54.4082C27.6388 54.4082 19.1286 57.6877 12.4805 63.1505C12.4805 63.1505 21.2069 72.7012 36.915 72.7012C52.6231 72.7012 61.3477 63.1489 61.3477 63.1489Z" fill="#CC6111"/>
</svg>
