<svg width="73" height="73" viewBox="0 0 73 73" fill="none" xmlns="http://www.w3.org/2000/svg">
<path d="M36.8902 72.7013C56.7979 72.7013 72.9362 56.563 72.9362 36.6554C72.9362 16.7477 56.7979 0.609375 36.8902 0.609375C16.9826 0.609375 0.844238 16.7477 0.844238 36.6554C0.844238 56.563 16.9826 72.7013 36.8902 72.7013Z" fill="#FFC7D4"/>
<path d="M61.323 63.1489C54.6752 57.6871 46.1657 54.4082 36.8904 54.4082C27.6142 54.4082 19.1039 57.6877 12.4558 63.1505C12.4558 63.1505 21.1823 72.7012 36.8904 72.7012C52.5984 72.7012 61.323 63.1489 61.323 63.1489Z" fill="#BC133C"/>
<path d="M24.1724 46.7341V39.2927C24.1724 32.2989 29.8946 26.5767 36.8894 26.5767C43.8832 26.5767 49.6055 32.2989 49.6055 39.2927V46.7341" stroke="#FF4D6F" stroke-width="8.96317" stroke-miterlimit="10"/>
</svg>
