<svg width="73" height="73" viewBox="0 0 73 73" fill="none" xmlns="http://www.w3.org/2000/svg">
<path d="M36.0572 72.5529C55.9649 72.5529 72.1032 56.4146 72.1032 36.5069C72.1032 16.5993 55.9649 0.460938 36.0572 0.460938C16.1496 0.460938 0.0112305 16.5993 0.0112305 36.5069C0.0112305 56.4146 16.1496 72.5529 36.0572 72.5529Z" fill="#EAD7FF"/>
<path d="M60.491 63.0004C53.8431 57.5386 45.3336 54.2598 36.0583 54.2598C26.7821 54.2598 18.2719 57.5392 11.6238 63.002C11.6238 63.002 20.3503 72.5528 36.0583 72.5528C51.7664 72.5528 60.491 63.0004 60.491 63.0004Z" fill="#53288C"/>
<path d="M12.2446 26.5614L26.005 40.7992C27.443 42.2872 29.9438 41.7453 30.637 39.7956L33.4321 31.9343C34.311 29.462 37.8073 29.462 38.6863 31.9343L41.4915 39.8239C42.1959 41.7508 44.6786 42.2796 46.1093 40.7992L59.8697 26.5614" stroke="#AF61F2" stroke-width="7.43968" stroke-miterlimit="10"/>
</svg>
