<svg width="73" height="73" viewBox="0 0 73 73" fill="none" xmlns="http://www.w3.org/2000/svg">
<path d="M36.6048 72.092C56.5125 72.092 72.6508 55.9536 72.6508 36.046C72.6508 16.1383 56.5125 0 36.6048 0C16.6972 0 0.558838 16.1383 0.558838 36.046C0.558838 55.9536 16.6972 72.092 36.6048 72.092Z" fill="#F2F2F2"/>
<path d="M52.6653 27.857C43.7951 36.7271 29.4138 36.7271 20.5437 27.857" stroke="#8C8C8C" stroke-width="8.96317" stroke-miterlimit="10"/>
<path d="M61.2705 62.5397C54.6227 57.0779 46.1132 53.799 36.8379 53.799C27.5617 53.799 19.0514 57.0785 12.4033 62.5413C12.4033 62.5413 21.1298 72.092 36.8379 72.092C52.5459 72.092 61.2705 62.5397 61.2705 62.5397Z" fill="#2F3135"/>
</svg>
