<svg width="73" height="73" viewBox="0 0 73 73" fill="none" xmlns="http://www.w3.org/2000/svg">
<path d="M36.9224 72.2541C56.8301 72.2541 72.9684 56.1158 72.9684 36.2082C72.9684 16.3005 56.8301 0.16217 36.9224 0.16217C17.0148 0.16217 0.876465 16.3005 0.876465 36.2082C0.876465 56.1158 17.0148 72.2541 36.9224 72.2541Z" fill="#FFE3E3"/>
<path d="M25.5657 45.4867C25.5657 32.9424 35.7348 22.7733 48.279 22.7733" stroke="#FF7373" stroke-width="8.96317" stroke-miterlimit="10"/>
<path d="M61.3557 62.7017C54.7079 57.2398 46.1984 53.961 36.9231 53.961C27.6469 53.961 19.1366 57.2405 12.4885 62.7033C12.4885 62.7033 21.215 72.254 36.9231 72.254C52.6312 72.254 61.3557 62.7017 61.3557 62.7017Z" fill="#5B0000"/>
</svg>
