<svg width="73" height="73" viewBox="0 0 73 73" fill="none" xmlns="http://www.w3.org/2000/svg">
<path d="M36.5565 72.5392C56.4642 72.5392 72.6025 56.4008 72.6025 36.4932C72.6025 16.5855 56.4642 0.447205 36.5565 0.447205C16.6488 0.447205 0.510498 16.5855 0.510498 36.4932C0.510498 56.4008 16.6488 72.5392 36.5565 72.5392Z" fill="#FFF1E6"/>
<path d="M14.0754 44.2409C14.0754 31.6966 24.2446 21.5275 36.7888 21.5275C49.333 21.5275 59.5022 31.6966 59.5022 44.2409" stroke="#FFAA64" stroke-width="8.96317" stroke-miterlimit="10"/>
<path d="M60.9902 62.9869C54.3424 57.5251 45.8329 54.2462 36.5576 54.2462C27.2814 54.2462 18.7711 57.5257 12.123 62.9885C12.123 62.9885 20.8495 72.5392 36.5576 72.5392C52.2657 72.5392 60.9902 62.9869 60.9902 62.9869Z" fill="#CC6111"/>
</svg>
