<svg width="73" height="73" viewBox="0 0 73 73" fill="none" xmlns="http://www.w3.org/2000/svg">
<path d="M36.858 72.5871C56.7657 72.5871 72.904 56.4487 72.904 36.5411C72.904 16.6334 56.7657 0.495117 36.858 0.495117C16.9503 0.495117 0.812012 16.6334 0.812012 36.5411C0.812012 56.4487 16.9503 72.5871 36.858 72.5871Z" fill="#D7DFFF"/>
<path d="M25.5012 42.9537C38.0455 42.9537 48.2146 32.7846 48.2146 20.2404" stroke="#525FA3" stroke-width="8.96317" stroke-miterlimit="10"/>
<path d="M12.4238 63.0347C19.0717 57.5728 27.5812 54.294 36.8565 54.294C46.1327 54.294 54.6429 57.5735 61.291 63.0363C61.291 63.0363 52.5645 72.587 36.8565 72.587C21.1484 72.587 12.4238 63.0347 12.4238 63.0347Z" fill="#192866"/>
</svg>
