<svg width="73" height="73" viewBox="0 0 73 73" fill="none" xmlns="http://www.w3.org/2000/svg">
<path d="M36.0685 72.1588C55.9761 72.1588 72.1145 56.0205 72.1145 36.1128C72.1145 16.2052 55.9761 0.066864 36.0685 0.066864C16.1608 0.066864 0.0224609 16.2052 0.0224609 36.1128C0.0224609 56.0205 16.1608 72.1588 36.0685 72.1588Z" fill="#FFE3E3"/>
<path d="M60.5024 62.6064C53.8546 57.1446 45.3451 53.8658 36.0698 53.8658C26.7936 53.8658 18.2834 57.1453 11.6353 62.608C11.6353 62.608 20.3617 72.1588 36.0698 72.1588C51.7779 72.1588 60.5024 62.6064 60.5024 62.6064Z" fill="#5B0000"/>
<path d="M46.927 31.366C46.927 24.9974 41.7643 19.8346 35.3956 19.8346C29.027 19.8346 23.8643 24.9974 23.8643 31.366C23.8643 37.7346 29.027 42.8974 35.3956 42.8974" stroke="#FF7373" stroke-width="7.43968" stroke-miterlimit="10"/>
</svg>
