<svg width="73" height="73" viewBox="0 0 73 73" fill="none" xmlns="http://www.w3.org/2000/svg">
<path d="M36.9144 72.2541C56.8221 72.2541 72.9604 56.1157 72.9604 36.2081C72.9604 16.3005 56.8221 0.162109 36.9144 0.162109C17.0068 0.162109 0.868408 16.3005 0.868408 36.2081C0.868408 56.1157 17.0068 72.2541 36.9144 72.2541Z" fill="#D7DFFF"/>
<path d="M48.271 45.4866C48.271 32.9424 38.1018 22.7733 25.5576 22.7733" stroke="#525FA3" stroke-width="8.96317" stroke-miterlimit="10"/>
<path d="M61.3477 62.7016C54.6998 57.2398 46.1903 53.9609 36.915 53.9609C27.6388 53.9609 19.1286 57.2404 12.4805 62.7032C12.4805 62.7032 21.2069 72.254 36.915 72.254C52.6231 72.254 61.3477 62.7016 61.3477 62.7016Z" fill="#192866"/>
</svg>
