<svg width="73" height="73" viewBox="0 0 73 73" fill="none" xmlns="http://www.w3.org/2000/svg">
<path d="M36.046 72.5528C55.9536 72.5528 72.092 56.4145 72.092 36.5069C72.092 16.5992 55.9536 0.460876 36.046 0.460876C16.1383 0.460876 0 16.5992 0 36.5069C0 56.4145 16.1383 72.5528 36.046 72.5528Z" fill="#FFF1E6"/>
<path d="M60.4797 63.0004C53.8319 57.5386 45.3224 54.2598 36.0471 54.2598C26.7709 54.2598 18.2606 57.5392 11.6125 63.002C11.6125 63.002 20.339 72.5528 36.0471 72.5528C51.7552 72.5528 60.4797 63.0004 60.4797 63.0004Z" fill="#CC6111"/>
<path d="M36.0458 19.4015L23.4194 32.0278L36.0458 44.6542L48.6721 32.0278L36.0458 19.4015Z" stroke="#FFAA64" stroke-width="7.43968" stroke-miterlimit="10"/>
</svg>
