<svg width="73" height="74" viewBox="0 0 73 74" fill="none" xmlns="http://www.w3.org/2000/svg">
<path d="M36.858 73.0343C56.7657 73.0343 72.904 56.896 72.904 36.9884C72.904 17.0807 56.7657 0.942383 36.858 0.942383C16.9503 0.942383 0.812012 17.0807 0.812012 36.9884C0.812012 56.896 16.9503 73.0343 36.858 73.0343Z" fill="#EAD7FF"/>
<path d="M25.5012 43.401C38.0455 43.401 48.2146 33.2319 48.2146 20.6876" stroke="#AF61F2" stroke-width="8.96317" stroke-miterlimit="10"/>
<path d="M12.4238 63.4819C19.0717 58.02 27.5812 54.7412 36.8565 54.7412C46.1327 54.7412 54.6429 58.0207 61.291 63.4835C61.291 63.4835 52.5645 73.0342 36.8565 73.0342C21.1484 73.0342 12.4238 63.4819 12.4238 63.4819Z" fill="#53288C"/>
</svg>
