<svg width="73" height="73" viewBox="0 0 73 73" fill="none" xmlns="http://www.w3.org/2000/svg">
<path d="M36.255 72.5392C56.1627 72.5392 72.301 56.4009 72.301 36.4933C72.301 16.5856 56.1627 0.447266 36.255 0.447266C16.3474 0.447266 0.208984 16.5856 0.208984 36.4933C0.208984 56.4009 16.3474 72.5392 36.255 72.5392Z" fill="#EAD7FF"/>
<path d="M52.3161 34.9568C43.446 26.0867 29.0647 26.0867 20.1946 34.9568" stroke="#AF61F2" stroke-width="8.96317" stroke-miterlimit="10"/>
<path d="M60.9214 62.9869C54.2736 57.5251 45.764 54.2463 36.4888 54.2463C27.2125 54.2463 18.7023 57.5257 12.0542 62.9885C12.0542 62.9885 20.7807 72.5393 36.4888 72.5393C52.1968 72.5393 60.9214 62.9869 60.9214 62.9869Z" fill="#53288C"/>
</svg>
