<svg width="73" height="73" viewBox="0 0 73 73" fill="none" xmlns="http://www.w3.org/2000/svg">
<path d="M36.9061 72.2541C56.8138 72.2541 72.9521 56.1157 72.9521 36.2081C72.9521 16.3005 56.8138 0.162109 36.9061 0.162109C16.9985 0.162109 0.860107 16.3005 0.860107 36.2081C0.860107 56.1157 16.9985 72.2541 36.9061 72.2541Z" fill="#DEFFDF"/>
<path d="M61.3398 62.7016C54.692 57.2398 46.1825 53.9609 36.9072 53.9609C27.631 53.9609 19.1208 57.2404 12.4727 62.7032C12.4727 62.7032 21.1991 72.254 36.9072 72.254C52.6153 72.254 61.3398 62.7016 61.3398 62.7016Z" fill="#007203"/>
<path d="M36.9064 43.6457C43.7446 43.6457 49.2881 38.1022 49.2881 31.264C49.2881 24.4258 43.7446 18.8823 36.9064 18.8823C30.0682 18.8823 24.5247 24.4258 24.5247 31.264C24.5247 38.1022 30.0682 43.6457 36.9064 43.6457Z" stroke="#75C675" stroke-width="8.96317" stroke-miterlimit="10"/>
</svg>
