<svg width="73" height="73" viewBox="0 0 73 73" fill="none" xmlns="http://www.w3.org/2000/svg">
<path d="M36.858 72.5392C56.7657 72.5392 72.904 56.4009 72.904 36.4933C72.904 16.5856 56.7657 0.447266 36.858 0.447266C16.9503 0.447266 0.812012 16.5856 0.812012 36.4933C0.812012 56.4009 16.9503 72.5392 36.858 72.5392Z" fill="#EAD7FF"/>
<path d="M61.291 62.9869C54.6432 57.5251 46.1337 54.2463 36.8584 54.2463C27.5822 54.2463 19.0719 57.5257 12.4238 62.9885C12.4238 62.9885 21.1503 72.5393 36.8584 72.5393C52.5665 72.5393 61.291 62.9869 61.291 62.9869Z" fill="#53288C"/>
<path d="M60.6035 25.1366C48.0592 25.1366 37.8901 35.3057 37.8901 47.85C37.8901 35.3057 27.721 25.1366 15.1768 25.1366" stroke="#AF61F2" stroke-width="8.96317" stroke-miterlimit="10"/>
</svg>
