<svg width="73" height="73" viewBox="0 0 73 73" fill="none" xmlns="http://www.w3.org/2000/svg">
<path d="M36.9384 72.7013C56.846 72.7013 72.9843 56.563 72.9843 36.6554C72.9843 16.7477 56.846 0.609375 36.9384 0.609375C17.0307 0.609375 0.892334 16.7477 0.892334 36.6554C0.892334 56.563 17.0307 72.7013 36.9384 72.7013Z" fill="#EAD7FF"/>
<path d="M61.372 63.1489C54.7242 57.6871 46.2147 54.4082 36.9394 54.4082C27.6632 54.4082 19.153 57.6877 12.5049 63.1505C12.5049 63.1505 21.2314 72.7012 36.9394 72.7012C52.6475 72.7012 61.372 63.1489 61.372 63.1489Z" fill="#53288C"/>
<path d="M28.1111 40.0625C32.6144 44.5658 39.9156 44.5658 44.4189 40.0625C48.9222 35.5592 48.9222 28.2579 44.4189 23.7546C39.9157 19.2513 32.6144 19.2513 28.1111 23.7546" stroke="#AF61F2" stroke-width="7.43968" stroke-miterlimit="10"/>
</svg>
