<svg width="73" height="73" viewBox="0 0 73 73" fill="none" xmlns="http://www.w3.org/2000/svg">
<path d="M36.3944 72.5528C56.302 72.5528 72.4404 56.4145 72.4404 36.5069C72.4404 16.5992 56.302 0.460876 36.3944 0.460876C16.4867 0.460876 0.348389 16.5992 0.348389 36.5069C0.348389 56.4145 16.4867 72.5528 36.3944 72.5528Z" fill="#FFF1E6"/>
<path d="M60.8276 63.0004C54.1798 57.5386 45.6703 54.2598 36.395 54.2598C27.1188 54.2598 18.6085 57.5392 11.9604 63.002C11.9604 63.002 20.6869 72.5528 36.395 72.5528C52.1031 72.5528 60.8276 63.0004 60.8276 63.0004Z" fill="#CC6111"/>
<path d="M59.9764 37.0131H46.3098L36.4158 24.3082L26.4796 37.0131H12.813" stroke="#FFAA64" stroke-width="7.43968" stroke-miterlimit="10"/>
</svg>
