<svg width="73" height="73" viewBox="0 0 73 73" fill="none" xmlns="http://www.w3.org/2000/svg">
<path d="M36.3832 72.606C56.2908 72.606 72.4291 56.4677 72.4291 36.56C72.4291 16.6524 56.2908 0.514038 36.3832 0.514038C16.4755 0.514038 0.337158 16.6524 0.337158 36.56C0.337158 56.4677 16.4755 72.606 36.3832 72.606Z" fill="#FFC7D4"/>
<path d="M60.8166 63.0536C54.1688 57.5918 45.6593 54.313 36.384 54.313C27.1078 54.313 18.5976 57.5925 11.9495 63.0553C11.9495 63.0553 20.6759 72.606 36.384 72.606C52.0921 72.606 60.8166 63.0536 60.8166 63.0536Z" fill="#BC133C"/>
<path d="M51.7391 41.8372L36.3832 26.4813L21.0273 41.8372" stroke="#FF4D6F" stroke-width="7.43968" stroke-miterlimit="10"/>
</svg>
