<svg width="74" height="74" viewBox="0 0 74 74" fill="none" xmlns="http://www.w3.org/2000/svg">
<path d="M36.9986 73.0343C56.9063 73.0343 73.0446 56.896 73.0446 36.9883C73.0446 17.0807 56.9063 0.942322 36.9986 0.942322C17.091 0.942322 0.952637 17.0807 0.952637 36.9883C0.952637 56.896 17.091 73.0343 36.9986 73.0343Z" fill="#E6F9FF"/>
<path d="M61.4312 63.4819C54.7833 58.02 46.2738 54.7412 36.9985 54.7412C27.7223 54.7412 19.2121 58.0207 12.564 63.4835C12.564 63.4835 21.2904 73.0342 36.9985 73.0342C52.7066 73.0342 61.4312 63.4819 61.4312 63.4819Z" fill="#061E4F"/>
<path d="M49.7137 24.8314V32.2728C49.7137 39.2666 43.9915 44.9889 36.9967 44.9889C36.5595 44.9889 36.1274 44.9665 35.7013 44.9229C27.2172 44.0544 23.1176 33.9455 27.9862 26.9433L35.0882 16.729" stroke="#76A7FF" stroke-width="8.96317" stroke-miterlimit="10"/>
</svg>
