<svg width="73" height="73" viewBox="0 0 73 73" fill="none" xmlns="http://www.w3.org/2000/svg">
<path d="M36.9384 72.7013C56.846 72.7013 72.9843 56.563 72.9843 36.6554C72.9843 16.7477 56.846 0.609375 36.9384 0.609375C17.0307 0.609375 0.892334 16.7477 0.892334 36.6554C0.892334 56.563 17.0307 72.7013 36.9384 72.7013Z" fill="#E6F9FF"/>
<path d="M61.372 63.1489C54.7242 57.6871 46.2147 54.4082 36.9394 54.4082C27.6632 54.4082 19.153 57.6877 12.5049 63.1505C12.5049 63.1505 21.2314 72.7012 36.9394 72.7012C52.6475 72.7012 61.372 63.1489 61.372 63.1489Z" fill="#061E4F"/>
<path d="M28.1111 39.7887C32.6144 44.292 39.9156 44.292 44.4189 39.7887C48.9222 35.2855 48.9222 27.9842 44.4189 23.4809C39.9157 18.9776 32.6144 18.9776 28.1111 23.4809" stroke="#76A7FF" stroke-width="7.43968" stroke-miterlimit="10"/>
</svg>
