<svg width="73" height="73" viewBox="0 0 73 73" fill="none" xmlns="http://www.w3.org/2000/svg">
<path d="M36.046 72.1056C55.9536 72.1056 72.092 55.9673 72.092 36.0597C72.092 16.152 55.9536 0.0136719 36.046 0.0136719C16.1383 0.0136719 0 16.152 0 36.0597C0 55.9673 16.1383 72.1056 36.046 72.1056Z" fill="#D7DFFF"/>
<path d="M60.4797 62.5532C53.8319 57.0914 45.3224 53.8126 36.0471 53.8126C26.7709 53.8126 18.2606 57.092 11.6125 62.5548C11.6125 62.5548 20.339 72.1056 36.0471 72.1056C51.7552 72.1056 60.4797 62.5532 60.4797 62.5532Z" fill="#192866"/>
<path d="M36.0458 18.9543L23.4194 31.5806L36.0458 44.207L48.6721 31.5806L36.0458 18.9543Z" stroke="#525FA3" stroke-width="7.43968" stroke-miterlimit="10"/>
</svg>
