<svg width="73" height="73" viewBox="0 0 73 73" fill="none" xmlns="http://www.w3.org/2000/svg">
<path d="M36.7311 72.5528C56.6387 72.5528 72.7771 56.4145 72.7771 36.5069C72.7771 16.5992 56.6387 0.460876 36.7311 0.460876C16.8234 0.460876 0.685059 16.5992 0.685059 36.5069C0.685059 56.4145 16.8234 72.5528 36.7311 72.5528Z" fill="#FFF1E6"/>
<path d="M61.165 63.0004C54.5172 57.5386 46.0077 54.2598 36.7324 54.2598C27.4562 54.2598 18.9459 57.5392 12.2979 63.002C12.2979 63.002 21.0243 72.5528 36.7324 72.5528C52.4405 72.5528 61.165 63.0004 61.165 63.0004Z" fill="#CC6111"/>
<path d="M61.0088 41.6507L47.2485 27.413C45.8104 25.925 43.3097 26.4668 42.6164 28.4165L39.8214 36.2779C38.9424 38.7501 35.4462 38.7501 34.5671 36.2779L31.7619 28.3882C31.0576 26.4613 28.5749 25.9325 27.1441 27.4129L13.3838 41.6507" stroke="#FFAA64" stroke-width="7.43968" stroke-miterlimit="10"/>
</svg>
