<svg width="73" height="73" viewBox="0 0 73 73" fill="none" xmlns="http://www.w3.org/2000/svg">
<path d="M36.6048 72.5392C56.5125 72.5392 72.6508 56.4009 72.6508 36.4933C72.6508 16.5856 56.5125 0.447266 36.6048 0.447266C16.6972 0.447266 0.558838 16.5856 0.558838 36.4933C0.558838 56.4009 16.6972 72.5392 36.6048 72.5392Z" fill="#EAD7FF"/>
<path d="M52.6653 28.3043C43.7951 37.1744 29.4138 37.1744 20.5437 28.3043" stroke="#AF61F2" stroke-width="8.96317" stroke-miterlimit="10"/>
<path d="M61.2705 62.9869C54.6227 57.5251 46.1132 54.2463 36.8379 54.2463C27.5617 54.2463 19.0514 57.5257 12.4033 62.9885C12.4033 62.9885 21.1298 72.5393 36.8379 72.5393C52.5459 72.5393 61.2705 62.9869 61.2705 62.9869Z" fill="#53288C"/>
</svg>
