<svg width="73" height="73" viewBox="0 0 73 73" fill="none" xmlns="http://www.w3.org/2000/svg">
<path d="M36.9061 72.7013C56.8138 72.7013 72.9521 56.563 72.9521 36.6554C72.9521 16.7477 56.8138 0.609375 36.9061 0.609375C16.9985 0.609375 0.860107 16.7477 0.860107 36.6554C0.860107 56.563 16.9985 72.7013 36.9061 72.7013Z" fill="#FFC7D4"/>
<path d="M61.3398 63.1489C54.692 57.6871 46.1825 54.4082 36.9072 54.4082C27.631 54.4082 19.1208 57.6877 12.4727 63.1505C12.4727 63.1505 21.1991 72.7012 36.9072 72.7012C52.6153 72.7012 61.3398 63.1489 61.3398 63.1489Z" fill="#BC133C"/>
<path d="M36.9064 44.093C43.7446 44.093 49.2881 38.5495 49.2881 31.7113C49.2881 24.873 43.7446 19.3295 36.9064 19.3295C30.0682 19.3295 24.5247 24.873 24.5247 31.7113C24.5247 38.5495 30.0682 44.093 36.9064 44.093Z" stroke="#FF4D6F" stroke-width="8.96317" stroke-miterlimit="10"/>
</svg>
