<svg width="73" height="73" viewBox="0 0 73 73" fill="none" xmlns="http://www.w3.org/2000/svg">
<path d="M36.9278 72.5871C56.8355 72.5871 72.9738 56.4487 72.9738 36.5411C72.9738 16.6334 56.8355 0.495117 36.9278 0.495117C17.0202 0.495117 0.881836 16.6334 0.881836 36.5411C0.881836 56.4487 17.0202 72.5871 36.9278 72.5871Z" fill="#F2F2F2"/>
<path d="M61.3616 63.0347C54.7137 57.5728 46.2042 54.294 36.9289 54.294C27.6527 54.294 19.1425 57.5735 12.4944 63.0363C12.4944 63.0363 21.2209 72.587 36.9289 72.587C52.637 72.587 61.3616 63.0347 61.3616 63.0347Z" fill="#2F3135"/>
<path d="M12.0339 38.3052H24.3139C24.3139 33.1808 28.4681 29.0267 33.5924 29.0267H41.8905C47.0148 29.0267 51.1689 33.1808 51.1689 38.3052H61.8215" stroke="#8C8C8C" stroke-width="8.96317" stroke-miterlimit="10"/>
</svg>
