<svg width="73" height="73" viewBox="0 0 73 73" fill="none" xmlns="http://www.w3.org/2000/svg">
<path d="M36.8927 72.5871C56.8003 72.5871 72.9386 56.4487 72.9386 36.5411C72.9386 16.6334 56.8003 0.495117 36.8927 0.495117C16.985 0.495117 0.84668 16.6334 0.84668 36.5411C0.84668 56.4487 16.985 72.5871 36.8927 72.5871Z" fill="#DEFFDF"/>
<path d="M61.3264 63.0346C54.6786 57.5728 46.1691 54.2939 36.8938 54.2939C27.6176 54.2939 19.1073 57.5734 12.4592 63.0362C12.4592 63.0362 21.1857 72.587 36.8938 72.587C52.6019 72.587 61.3264 63.0346 61.3264 63.0346Z" fill="#007203"/>
<path d="M49.4585 47.3487V29.878C49.4585 22.9668 43.8039 17.3123 36.8927 17.3123C29.9815 17.3123 24.3269 22.9668 24.3269 29.878" stroke="#75C675" stroke-width="8.96317" stroke-miterlimit="10"/>
</svg>
