<svg width="73" height="73" viewBox="0 0 73 73" fill="none" xmlns="http://www.w3.org/2000/svg">
<path d="M36.9278 72.5871C56.8355 72.5871 72.9738 56.4487 72.9738 36.5411C72.9738 16.6334 56.8355 0.495117 36.9278 0.495117C17.0202 0.495117 0.881836 16.6334 0.881836 36.5411C0.881836 56.4487 17.0202 72.5871 36.9278 72.5871Z" fill="#DEFFDF"/>
<path d="M61.3616 63.0346C54.7137 57.5728 46.2042 54.2939 36.9289 54.2939C27.6527 54.2939 19.1425 57.5734 12.4944 63.0362C12.4944 63.0362 21.2209 72.587 36.9289 72.587C52.637 72.587 61.3616 63.0346 61.3616 63.0346Z" fill="#007203"/>
<path d="M12.0339 38.3051H24.3139C24.3139 33.1807 28.4681 29.0266 33.5924 29.0266H41.8905C47.0148 29.0266 51.1689 33.1807 51.1689 38.3051H61.8215" stroke="#75C675" stroke-width="8.96317" stroke-miterlimit="10"/>
</svg>
