<svg width="73" height="73" viewBox="0 0 73 73" fill="none" xmlns="http://www.w3.org/2000/svg">
<path d="M36.0572 72.5528C55.9649 72.5528 72.1032 56.4145 72.1032 36.5069C72.1032 16.5992 55.9649 0.460876 36.0572 0.460876C16.1496 0.460876 0.0112305 16.5992 0.0112305 36.5069C0.0112305 56.4145 16.1496 72.5528 36.0572 72.5528Z" fill="#FFF1E6"/>
<path d="M60.491 63.0004C53.8431 57.5386 45.3336 54.2598 36.0583 54.2598C26.7821 54.2598 18.2719 57.5392 11.6238 63.002C11.6238 63.002 20.3503 72.5528 36.0583 72.5528C51.7664 72.5528 60.491 63.0004 60.491 63.0004Z" fill="#CC6111"/>
<path d="M12.2446 26.5613L26.005 40.7991C27.443 42.2871 29.9438 41.7453 30.637 39.7955L33.4321 31.9342C34.311 29.462 37.8073 29.462 38.6863 31.9342L41.4915 39.8239C42.1959 41.7507 44.6786 42.2795 46.1093 40.7991L59.8697 26.5614" stroke="#FFAA64" stroke-width="7.43968" stroke-miterlimit="10"/>
</svg>
