<svg width="73" height="73" viewBox="0 0 73 73" fill="none" xmlns="http://www.w3.org/2000/svg">
<path d="M36.8902 72.2541C56.7979 72.2541 72.9362 56.1158 72.9362 36.2082C72.9362 16.3005 56.7979 0.16217 36.8902 0.16217C16.9826 0.16217 0.844238 16.3005 0.844238 36.2082C0.844238 56.1158 16.9826 72.2541 36.8902 72.2541Z" fill="#F2F2F2"/>
<path d="M61.323 62.7017C54.6752 57.2398 46.1657 53.961 36.8904 53.961C27.6142 53.961 19.1039 57.2405 12.4558 62.7033C12.4558 62.7033 21.1823 72.254 36.8904 72.254C52.5984 72.254 61.323 62.7017 61.323 62.7017Z" fill="#2F3135"/>
<path d="M24.1724 46.2869V38.8455C24.1724 31.8517 29.8946 26.1295 36.8894 26.1295C43.8832 26.1295 49.6055 31.8517 49.6055 38.8455V46.2869" stroke="#8C8C8C" stroke-width="8.96317" stroke-miterlimit="10"/>
</svg>
