<svg width="73" height="73" viewBox="0 0 73 73" fill="none" xmlns="http://www.w3.org/2000/svg">
<path d="M36.9542 72.5392C56.8618 72.5392 73.0002 56.4009 73.0002 36.4933C73.0002 16.5856 56.8618 0.447266 36.9542 0.447266C17.0465 0.447266 0.908203 16.5856 0.908203 36.4933C0.908203 56.4009 17.0465 72.5392 36.9542 72.5392Z" fill="#EAD7FF"/>
<path d="M61.3875 62.9869C54.7396 57.5251 46.2301 54.2463 36.9548 54.2463C27.6786 54.2463 19.1684 57.5257 12.5203 62.9885C12.5203 62.9885 21.2467 72.5393 36.9548 72.5393C52.6629 72.5393 61.3875 62.9869 61.3875 62.9869Z" fill="#53288C"/>
<path d="M42.2576 41.4503L54.3915 41.6371L48.1087 22.2277L37.8762 22.0522H37.2919L27.0593 22.2277L20.7766 41.6371L32.9104 41.4503H42.2576Z" stroke="#AF61F2" stroke-width="7.43968" stroke-miterlimit="10"/>
</svg>
