<svg width="73" height="73" viewBox="0 0 73 73" fill="none" xmlns="http://www.w3.org/2000/svg">
<path d="M36.3944 72.5529C56.302 72.5529 72.4404 56.4146 72.4404 36.5069C72.4404 16.5993 56.302 0.460938 36.3944 0.460938C16.4867 0.460938 0.348389 16.5993 0.348389 36.5069C0.348389 56.4146 16.4867 72.5529 36.3944 72.5529Z" fill="#FFC7D4"/>
<path d="M60.8276 63.0005C54.1798 57.5387 45.6703 54.2598 36.395 54.2598C27.1188 54.2598 18.6085 57.5393 11.9604 63.0021C11.9604 63.0021 20.6869 72.5528 36.395 72.5528C52.1031 72.5528 60.8276 63.0005 60.8276 63.0005Z" fill="#BC133C"/>
<path d="M59.9764 37.0132H46.3098L36.4158 24.3083L26.4796 37.0132H12.813" stroke="#FF4D6F" stroke-width="7.43968" stroke-miterlimit="10"/>
</svg>
