<svg width="73" height="73" viewBox="0 0 73 73" fill="none" xmlns="http://www.w3.org/2000/svg">
<path d="M36.0685 72.5529C55.9761 72.5529 72.1145 56.4146 72.1145 36.5069C72.1145 16.5993 55.9761 0.460938 36.0685 0.460938C16.1608 0.460938 0.0224609 16.5993 0.0224609 36.5069C0.0224609 56.4146 16.1608 72.5529 36.0685 72.5529Z" fill="#FFC7D4"/>
<path d="M60.5024 63.0005C53.8546 57.5387 45.3451 54.2598 36.0698 54.2598C26.7936 54.2598 18.2834 57.5393 11.6353 63.0021C11.6353 63.0021 20.3617 72.5528 36.0698 72.5528C51.7779 72.5528 60.5024 63.0005 60.5024 63.0005Z" fill="#BC133C"/>
<path d="M12.4868 27.7537H26.1534L36.0475 40.4585L45.9836 27.7537H59.6503" stroke="#FF4D6F" stroke-width="7.43968" stroke-miterlimit="10"/>
</svg>
