<svg width="73" height="73" viewBox="0 0 73 73" fill="none" xmlns="http://www.w3.org/2000/svg">
<path d="M36.7311 72.1589C56.6387 72.1589 72.7771 56.0205 72.7771 36.1129C72.7771 16.2052 56.6387 0.0668945 36.7311 0.0668945C16.8234 0.0668945 0.685059 16.2052 0.685059 36.1129C0.685059 56.0205 16.8234 72.1589 36.7311 72.1589Z" fill="#DEFFDF"/>
<path d="M61.165 62.6065C54.5172 57.1447 46.0077 53.8658 36.7324 53.8658C27.4562 53.8658 18.9459 57.1453 12.2979 62.6081C12.2979 62.6081 21.0243 72.1589 36.7324 72.1589C52.4405 72.1589 61.165 62.6065 61.165 62.6065Z" fill="#007203"/>
<path d="M47.5898 21.0441H25.8733V42.7605H47.5898V21.0441Z" stroke="#75C675" stroke-width="7.43968" stroke-miterlimit="10"/>
</svg>
