<svg width="73" height="73" viewBox="0 0 73 73" fill="none" xmlns="http://www.w3.org/2000/svg">
<path d="M36.255 72.092C56.1627 72.092 72.301 55.9536 72.301 36.046C72.301 16.1383 56.1627 0 36.255 0C16.3474 0 0.208984 16.1383 0.208984 36.046C0.208984 55.9536 16.3474 72.092 36.255 72.092Z" fill="#FFE3E3"/>
<path d="M52.3161 34.5096C43.446 25.6395 29.0647 25.6395 20.1946 34.5096" stroke="#FF7373" stroke-width="8.96317" stroke-miterlimit="10"/>
<path d="M60.9214 62.5397C54.2736 57.0779 45.764 53.799 36.4888 53.799C27.2125 53.799 18.7023 57.0785 12.0542 62.5413C12.0542 62.5413 20.7807 72.092 36.4888 72.092C52.1968 72.092 60.9214 62.5397 60.9214 62.5397Z" fill="#5B0000"/>
</svg>
