<svg width="73" height="73" viewBox="0 0 73 73" fill="none" xmlns="http://www.w3.org/2000/svg">
<path d="M36.5565 72.092C56.4642 72.092 72.6025 55.9536 72.6025 36.046C72.6025 16.1383 56.4642 0 36.5565 0C16.6488 0 0.510498 16.1383 0.510498 36.046C0.510498 55.9536 16.6488 72.092 36.5565 72.092Z" fill="#DEFFDF"/>
<path d="M14.0754 43.7937C14.0754 31.2494 24.2446 21.0803 36.7888 21.0803C49.333 21.0803 59.5022 31.2494 59.5022 43.7937" stroke="#75C675" stroke-width="8.96317" stroke-miterlimit="10"/>
<path d="M60.9902 62.5397C54.3424 57.0779 45.8329 53.799 36.5576 53.799C27.2814 53.799 18.7711 57.0785 12.123 62.5413C12.123 62.5413 20.8495 72.092 36.5576 72.092C52.2657 72.092 60.9902 62.5397 60.9902 62.5397Z" fill="#007203"/>
</svg>
