<svg width="73" height="74" viewBox="0 0 73 74" fill="none" xmlns="http://www.w3.org/2000/svg">
<path d="M36.8927 73.0343C56.8003 73.0343 72.9386 56.896 72.9386 36.9884C72.9386 17.0807 56.8003 0.942383 36.8927 0.942383C16.985 0.942383 0.84668 17.0807 0.84668 36.9884C0.84668 56.896 16.985 73.0343 36.8927 73.0343Z" fill="#FFC7D4"/>
<path d="M61.3264 63.4819C54.6786 58.0201 46.1691 54.7413 36.8938 54.7413C27.6176 54.7413 19.1073 58.0207 12.4592 63.4835C12.4592 63.4835 21.1857 73.0343 36.8938 73.0343C52.6019 73.0343 61.3264 63.4819 61.3264 63.4819Z" fill="#BC133C"/>
<path d="M49.4585 47.7959V30.3253C49.4585 23.4141 43.8039 17.7595 36.8927 17.7595C29.9815 17.7595 24.3269 23.4141 24.3269 30.3253" stroke="#FF4D6F" stroke-width="8.96317" stroke-miterlimit="10"/>
</svg>
