<svg width="73" height="73" viewBox="0 0 73 73" fill="none" xmlns="http://www.w3.org/2000/svg">
<path d="M36.6048 72.5392C56.5125 72.5392 72.6508 56.4008 72.6508 36.4932C72.6508 16.5855 56.5125 0.447205 36.6048 0.447205C16.6972 0.447205 0.558838 16.5855 0.558838 36.4932C0.558838 56.4008 16.6972 72.5392 36.6048 72.5392Z" fill="#FFF1E6"/>
<path d="M52.6653 28.3042C43.7951 37.1743 29.4138 37.1743 20.5437 28.3042" stroke="#FFAA64" stroke-width="8.96317" stroke-miterlimit="10"/>
<path d="M61.2705 62.9869C54.6227 57.5251 46.1132 54.2462 36.8379 54.2462C27.5617 54.2462 19.0514 57.5257 12.4033 62.9885C12.4033 62.9885 21.1298 72.5392 36.8379 72.5392C52.5459 72.5392 61.2705 62.9869 61.2705 62.9869Z" fill="#CC6111"/>
</svg>
