<svg width="73" height="73" viewBox="0 0 73 73" fill="none" xmlns="http://www.w3.org/2000/svg">
<path d="M36.9303 72.2541C56.8379 72.2541 72.9763 56.1157 72.9763 36.2081C72.9763 16.3005 56.8379 0.162109 36.9303 0.162109C17.0226 0.162109 0.884277 16.3005 0.884277 36.2081C0.884277 56.1157 17.0226 72.2541 36.9303 72.2541Z" fill="#DEFFDF"/>
<path d="M48.2869 42.6207C35.7426 42.6207 25.5735 32.4515 25.5735 19.9073" stroke="#75C675" stroke-width="8.96317" stroke-miterlimit="10"/>
<path d="M61.3643 62.7016C54.7164 57.2398 46.2069 53.9609 36.9316 53.9609C27.6554 53.9609 19.1452 57.2404 12.4971 62.7032C12.4971 62.7032 21.2235 72.254 36.9316 72.254C52.6397 72.254 61.3643 62.7016 61.3643 62.7016Z" fill="#007203"/>
</svg>
