<svg width="73" height="74" viewBox="0 0 73 74" fill="none" xmlns="http://www.w3.org/2000/svg">
<path d="M36.0685 73.0343C55.9761 73.0343 72.1145 56.896 72.1145 36.9884C72.1145 17.0807 55.9761 0.942383 36.0685 0.942383C16.1608 0.942383 0.0224609 17.0807 0.0224609 36.9884C0.0224609 56.896 16.1608 73.0343 36.0685 73.0343Z" fill="#FFC7D4"/>
<path d="M60.5024 63.4819C53.8546 58.0201 45.3451 54.7413 36.0698 54.7413C26.7936 54.7413 18.2834 58.0207 11.6353 63.4835C11.6353 63.4835 20.3617 73.0343 36.0698 73.0343C51.7779 73.0343 60.5024 63.4819 60.5024 63.4819Z" fill="#BC133C"/>
<path d="M27.2417 24.0876C22.7384 28.5909 22.7384 35.8922 27.2417 40.3955C31.745 44.8988 39.0463 44.8988 43.5496 40.3955C48.0529 35.8922 48.0529 28.5909 43.5496 24.0876" stroke="#FF4D6F" stroke-width="7.43968" stroke-miterlimit="10"/>
</svg>
