<svg width="73" height="73" viewBox="0 0 73 73" fill="none" xmlns="http://www.w3.org/2000/svg">
<path d="M36.9632 72.5871C56.8709 72.5871 73.0092 56.4487 73.0092 36.5411C73.0092 16.6334 56.8709 0.495117 36.9632 0.495117C17.0556 0.495117 0.917236 16.6334 0.917236 36.5411C0.917236 56.4487 17.0556 72.5871 36.9632 72.5871Z" fill="#FFE3E3"/>
<path d="M61.397 63.0347C54.7491 57.5728 46.2396 54.294 36.9643 54.294C27.6881 54.294 19.1779 57.5735 12.5298 63.0363C12.5298 63.0363 21.2563 72.587 36.9643 72.587C52.6724 72.587 61.397 63.0347 61.397 63.0347Z" fill="#5B0000"/>
<path d="M50.7749 44.2383L44.849 28.6794C41.8997 21.3639 31.6046 21.1937 28.4149 28.4076L27.3031 30.9221L21.4153 44.2383" stroke="#FF7373" stroke-width="8.96317" stroke-miterlimit="10"/>
</svg>
