<svg width="73" height="73" viewBox="0 0 73 73" fill="none" xmlns="http://www.w3.org/2000/svg">
<path d="M36.898 72.2541C56.8057 72.2541 72.944 56.1157 72.944 36.2081C72.944 16.3005 56.8057 0.162109 36.898 0.162109C16.9904 0.162109 0.852051 16.3005 0.852051 36.2081C0.852051 56.1157 16.9904 72.2541 36.898 72.2541Z" fill="#D7DFFF"/>
<path d="M61.3308 62.7016C54.683 57.2398 46.1735 53.9609 36.8982 53.9609C27.622 53.9609 19.1117 57.2404 12.4636 62.7032C12.4636 62.7032 21.1901 72.254 36.8982 72.254C52.6062 72.254 61.3308 62.7016 61.3308 62.7016Z" fill="#192866"/>
<path d="M49.6133 24.0512V31.4926C49.6133 38.4864 43.8911 44.2087 36.8962 44.2087C29.9024 44.2087 24.1802 38.4865 24.1802 31.4926V24.0512" stroke="#525FA3" stroke-width="8.96317" stroke-miterlimit="10"/>
</svg>
