<svg width="73" height="73" viewBox="0 0 73 73" fill="none" xmlns="http://www.w3.org/2000/svg">
<path d="M36.7198 72.606C56.6275 72.606 72.7658 56.4677 72.7658 36.5601C72.7658 16.6524 56.6275 0.514069 36.7198 0.514069C16.8122 0.514069 0.673828 16.6524 0.673828 36.5601C0.673828 56.4677 16.8122 72.606 36.7198 72.606Z" fill="#E6F9FF"/>
<path d="M61.1538 63.0536C54.506 57.5918 45.9965 54.313 36.7212 54.313C27.445 54.313 18.9347 57.5925 12.2866 63.0553C12.2866 63.0553 21.0131 72.606 36.7212 72.606C52.4292 72.606 61.1538 63.0536 61.1538 63.0536Z" fill="#061E4F"/>
<path d="M21.364 26.7497L36.7199 42.1055L52.0758 26.7497" stroke="#76A7FF" stroke-width="7.43968" stroke-miterlimit="10"/>
</svg>
