<svg width="73" height="73" viewBox="0 0 73 73" fill="none" xmlns="http://www.w3.org/2000/svg">
<path d="M36.0685 72.606C55.9761 72.606 72.1145 56.4677 72.1145 36.56C72.1145 16.6524 55.9761 0.514038 36.0685 0.514038C16.1608 0.514038 0.0224609 16.6524 0.0224609 36.56C0.0224609 56.4677 16.1608 72.606 36.0685 72.606Z" fill="#FFF1E6"/>
<path d="M60.5024 63.0536C53.8546 57.5918 45.3451 54.313 36.0698 54.313C26.7936 54.313 18.2834 57.5924 11.6353 63.0552C11.6353 63.0552 20.3617 72.606 36.0698 72.606C51.7779 72.606 60.5024 63.0536 60.5024 63.0536Z" fill="#CC6111"/>
<path d="M46.927 31.8132C46.927 25.4446 41.7643 20.2818 35.3956 20.2818C29.027 20.2818 23.8643 25.4446 23.8643 31.8132C23.8643 38.1818 29.027 43.3446 35.3956 43.3446" stroke="#FFAA64" stroke-width="7.43968" stroke-miterlimit="10"/>
</svg>
