<svg width="73" height="73" viewBox="0 0 73 73" fill="none" xmlns="http://www.w3.org/2000/svg">
<path d="M36.0685 72.5871C55.9761 72.5871 72.1145 56.4487 72.1145 36.5411C72.1145 16.6334 55.9761 0.495117 36.0685 0.495117C16.1608 0.495117 0.0224609 16.6334 0.0224609 36.5411C0.0224609 56.4487 16.1608 72.5871 36.0685 72.5871Z" fill="#F2F2F2"/>
<path d="M60.5024 63.0347C53.8546 57.5728 45.3451 54.294 36.0698 54.294C26.7936 54.294 18.2834 57.5735 11.6353 63.0363C11.6353 63.0363 20.3617 72.587 36.0698 72.587C51.7779 72.587 60.5024 63.0347 60.5024 63.0347Z" fill="#2F3135"/>
<path d="M27.2417 23.6404C22.7384 28.1437 22.7384 35.4449 27.2417 39.9482C31.745 44.4515 39.0463 44.4515 43.5496 39.9482C48.0529 35.4449 48.0529 28.1437 43.5496 23.6404" stroke="#8C8C8C" stroke-width="7.43968" stroke-miterlimit="10"/>
</svg>
