<svg width="73" height="73" viewBox="0 0 73 73" fill="none" xmlns="http://www.w3.org/2000/svg">
<path d="M36.9384 72.2541C56.846 72.2541 72.9843 56.1158 72.9843 36.2082C72.9843 16.3005 56.846 0.16217 36.9384 0.16217C17.0307 0.16217 0.892334 16.3005 0.892334 36.2082C0.892334 56.1158 17.0307 72.2541 36.9384 72.2541Z" fill="#FFE3E3"/>
<path d="M61.372 62.7017C54.7242 57.2398 46.2147 53.961 36.9394 53.961C27.6632 53.961 19.153 57.2405 12.5049 62.7033C12.5049 62.7033 21.2314 72.254 36.9394 72.254C52.6475 72.254 61.372 62.7017 61.372 62.7017Z" fill="#5B0000"/>
<path d="M28.1111 39.6153C32.6144 44.1185 39.9156 44.1185 44.4189 39.6153C48.9222 35.112 48.9222 27.8107 44.4189 23.3074C39.9157 18.8041 32.6144 18.8041 28.1111 23.3074" stroke="#FF7373" stroke-width="7.43968" stroke-miterlimit="10"/>
</svg>
