<svg width="73" height="73" viewBox="0 0 73 73" fill="none" xmlns="http://www.w3.org/2000/svg">
<path d="M36.9224 72.2541C56.8301 72.2541 72.9684 56.1157 72.9684 36.2081C72.9684 16.3005 56.8301 0.162109 36.9224 0.162109C17.0148 0.162109 0.876465 16.3005 0.876465 36.2081C0.876465 56.1157 17.0148 72.2541 36.9224 72.2541Z" fill="#DEFFDF"/>
<path d="M25.5657 45.4866C25.5657 32.9424 35.7348 22.7733 48.279 22.7733" stroke="#75C675" stroke-width="8.96317" stroke-miterlimit="10"/>
<path d="M61.3557 62.7016C54.7079 57.2398 46.1984 53.9609 36.9231 53.9609C27.6469 53.9609 19.1366 57.2404 12.4885 62.7032C12.4885 62.7032 21.215 72.254 36.9231 72.254C52.6312 72.254 61.3557 62.7016 61.3557 62.7016Z" fill="#007203"/>
</svg>
