<svg width="73" height="73" viewBox="0 0 73 73" fill="none" xmlns="http://www.w3.org/2000/svg">
<path d="M36.3944 72.1056C56.302 72.1056 72.4404 55.9673 72.4404 36.0597C72.4404 16.152 56.302 0.0136719 36.3944 0.0136719C16.4867 0.0136719 0.348389 16.152 0.348389 36.0597C0.348389 55.9673 16.4867 72.1056 36.3944 72.1056Z" fill="#DEFFDF"/>
<path d="M60.8276 62.5532C54.1798 57.0913 45.6703 53.8125 36.395 53.8125C27.1188 53.8125 18.6085 57.092 11.9604 62.5548C11.9604 62.5548 20.6869 72.1055 36.395 72.1055C52.1031 72.1055 60.8276 62.5532 60.8276 62.5532Z" fill="#007203"/>
<path d="M59.9764 36.566H46.3098L36.4158 23.8611L26.4796 36.566H12.813" stroke="#75C675" stroke-width="7.43968" stroke-miterlimit="10"/>
</svg>
