<svg width="74" height="73" viewBox="0 0 74 73" fill="none" xmlns="http://www.w3.org/2000/svg">
<path d="M36.9986 72.5871C56.9063 72.5871 73.0446 56.4487 73.0446 36.5411C73.0446 16.6334 56.9063 0.495117 36.9986 0.495117C17.091 0.495117 0.952637 16.6334 0.952637 36.5411C0.952637 56.4487 17.091 72.5871 36.9986 72.5871Z" fill="#DEFFDF"/>
<path d="M61.4312 63.0346C54.7833 57.5728 46.2738 54.2939 36.9985 54.2939C27.7223 54.2939 19.2121 57.5734 12.564 63.0362C12.564 63.0362 21.2904 72.587 36.9985 72.587C52.7066 72.587 61.4312 63.0346 61.4312 63.0346Z" fill="#007203"/>
<path d="M49.7137 24.3842V31.8256C49.7137 38.8194 43.9915 44.5416 36.9967 44.5416C36.5595 44.5416 36.1274 44.5193 35.7013 44.4757C27.2172 43.6072 23.1176 33.4982 27.9862 26.4961L35.0882 16.2817" stroke="#75C675" stroke-width="8.96317" stroke-miterlimit="10"/>
</svg>
