<svg width="73" height="73" viewBox="0 0 73 73" fill="none" xmlns="http://www.w3.org/2000/svg">
<path d="M36.0685 72.1056C55.9761 72.1056 72.1145 55.9673 72.1145 36.0597C72.1145 16.152 55.9761 0.0136719 36.0685 0.0136719C16.1608 0.0136719 0.0224609 16.152 0.0224609 36.0597C0.0224609 55.9673 16.1608 72.1056 36.0685 72.1056Z" fill="#D7DFFF"/>
<path d="M60.5024 62.5532C53.8546 57.0914 45.3451 53.8126 36.0698 53.8126C26.7936 53.8126 18.2834 57.092 11.6353 62.5548C11.6353 62.5548 20.3617 72.1056 36.0698 72.1056C51.7779 72.1056 60.5024 62.5532 60.5024 62.5532Z" fill="#192866"/>
<path d="M12.4868 27.3064H26.1534L36.0475 40.0113L45.9836 27.3064H59.6503" stroke="#525FA3" stroke-width="7.43968" stroke-miterlimit="10"/>
</svg>
