<svg width="73" height="73" viewBox="0 0 73 73" fill="none" xmlns="http://www.w3.org/2000/svg">
<path d="M36.898 72.2541C56.8057 72.2541 72.944 56.1158 72.944 36.2082C72.944 16.3005 56.8057 0.16217 36.898 0.16217C16.9904 0.16217 0.852051 16.3005 0.852051 36.2082C0.852051 56.1158 16.9904 72.2541 36.898 72.2541Z" fill="#FFE3E3"/>
<path d="M61.3308 62.7017C54.683 57.2398 46.1735 53.961 36.8982 53.961C27.622 53.961 19.1117 57.2405 12.4636 62.7033C12.4636 62.7033 21.1901 72.254 36.8982 72.254C52.6062 72.254 61.3308 62.7017 61.3308 62.7017Z" fill="#5B0000"/>
<path d="M49.6133 24.0513V31.4927C49.6133 38.4865 43.8911 44.2088 36.8962 44.2088C29.9024 44.2088 24.1802 38.4865 24.1802 31.4927V24.0513" stroke="#FF7373" stroke-width="8.96317" stroke-miterlimit="10"/>
</svg>
