<svg width="74" height="73" viewBox="0 0 74 73" fill="none" xmlns="http://www.w3.org/2000/svg">
<path d="M37.033 72.5871C56.9407 72.5871 73.0791 56.4487 73.0791 36.5411C73.0791 16.6334 56.9407 0.495117 37.033 0.495117C17.1254 0.495117 0.987061 16.6334 0.987061 36.5411C0.987061 56.4487 17.1254 72.5871 37.033 72.5871Z" fill="#F2F2F2"/>
<path d="M61.467 63.0347C54.8192 57.5728 46.3097 54.294 37.0344 54.294C27.7582 54.294 19.248 57.5735 12.5999 63.0363C12.5999 63.0363 21.3263 72.587 37.0344 72.587C52.7425 72.587 61.467 63.0347 61.467 63.0347Z" fill="#2F3135"/>
<path d="M24.4673 29.878C24.4673 22.9669 30.1219 17.3123 37.033 17.3123C37.465 17.3123 37.892 17.3344 38.3131 17.3775C46.8234 18.2486 50.5731 28.7046 45.1082 35.2863L35.0925 47.3487" stroke="#8C8C8C" stroke-width="8.96317" stroke-miterlimit="10"/>
</svg>
