<svg width="73" height="73" viewBox="0 0 73 73" fill="none" xmlns="http://www.w3.org/2000/svg">
<path d="M36.9056 72.5392C56.8133 72.5392 72.9516 56.4009 72.9516 36.4933C72.9516 16.5856 56.8133 0.447266 36.9056 0.447266C16.998 0.447266 0.859619 16.5856 0.859619 36.4933C0.859619 56.4009 16.998 72.5392 36.9056 72.5392Z" fill="#EAD7FF"/>
<path d="M14.4248 21.5276C14.4248 34.0718 24.5939 44.2409 37.1382 44.2409C49.6824 44.2409 59.8515 34.0718 59.8515 21.5276" stroke="#AF61F2" stroke-width="8.96317" stroke-miterlimit="10"/>
<path d="M61.3396 62.9869C54.6918 57.5251 46.1823 54.2463 36.907 54.2463C27.6308 54.2463 19.1205 57.5257 12.4724 62.9885C12.4724 62.9885 21.1989 72.5393 36.907 72.5393C52.615 72.5393 61.3396 62.9869 61.3396 62.9869Z" fill="#53288C"/>
</svg>
