<svg width="73" height="73" viewBox="0 0 73 73" fill="none" xmlns="http://www.w3.org/2000/svg">
<path d="M36.5565 72.5392C56.4642 72.5392 72.6025 56.4009 72.6025 36.4933C72.6025 16.5856 56.4642 0.447266 36.5565 0.447266C16.6488 0.447266 0.510498 16.5856 0.510498 36.4933C0.510498 56.4009 16.6488 72.5392 36.5565 72.5392Z" fill="#EAD7FF"/>
<path d="M14.0754 44.2409C14.0754 31.6967 24.2446 21.5276 36.7888 21.5276C49.333 21.5276 59.5022 31.6967 59.5022 44.2409" stroke="#AF61F2" stroke-width="8.96317" stroke-miterlimit="10"/>
<path d="M60.9902 62.9869C54.3424 57.5251 45.8329 54.2463 36.5576 54.2463C27.2814 54.2463 18.7711 57.5257 12.123 62.9885C12.123 62.9885 20.8495 72.5393 36.5576 72.5393C52.2657 72.5393 60.9902 62.9869 60.9902 62.9869Z" fill="#53288C"/>
</svg>
