<svg width="73" height="73" viewBox="0 0 73 73" fill="none" xmlns="http://www.w3.org/2000/svg">
<path d="M36.046 72.5529C55.9536 72.5529 72.092 56.4146 72.092 36.5069C72.092 16.5993 55.9536 0.460938 36.046 0.460938C16.1383 0.460938 0 16.5993 0 36.5069C0 56.4146 16.1383 72.5529 36.046 72.5529Z" fill="#FFC7D4"/>
<path d="M60.4797 63.0005C53.8319 57.5387 45.3224 54.2598 36.0471 54.2598C26.7709 54.2598 18.2606 57.5393 11.6125 63.0021C11.6125 63.0021 20.339 72.5528 36.0471 72.5528C51.7552 72.5528 60.4797 63.0005 60.4797 63.0005Z" fill="#BC133C"/>
<path d="M36.0458 19.4015L23.4194 32.0279L36.0458 44.6542L48.6721 32.0279L36.0458 19.4015Z" stroke="#FF4D6F" stroke-width="7.43968" stroke-miterlimit="10"/>
</svg>
