<svg width="73" height="73" viewBox="0 0 73 73" fill="none" xmlns="http://www.w3.org/2000/svg">
<path d="M36.7311 72.1588C56.6387 72.1588 72.7771 56.0205 72.7771 36.1128C72.7771 16.2052 56.6387 0.066864 36.7311 0.066864C16.8234 0.066864 0.685059 16.2052 0.685059 36.1128C0.685059 56.0205 16.8234 72.1588 36.7311 72.1588Z" fill="#FFE3E3"/>
<path d="M61.165 62.6064C54.5172 57.1446 46.0077 53.8658 36.7324 53.8658C27.4562 53.8658 18.9459 57.1453 12.2979 62.608C12.2979 62.608 21.0243 72.1588 36.7324 72.1588C52.4405 72.1588 61.165 62.6064 61.165 62.6064Z" fill="#5B0000"/>
<path d="M47.5898 21.0441H25.8733V42.7605H47.5898V21.0441Z" stroke="#FF7373" stroke-width="7.43968" stroke-miterlimit="10"/>
</svg>
