<svg width="73" height="73" viewBox="0 0 73 73" fill="none" xmlns="http://www.w3.org/2000/svg">
<path d="M36.3832 72.1588C56.2908 72.1588 72.4291 56.0205 72.4291 36.1128C72.4291 16.2052 56.2908 0.066864 36.3832 0.066864C16.4755 0.066864 0.337158 16.2052 0.337158 36.1128C0.337158 56.0205 16.4755 72.1588 36.3832 72.1588Z" fill="#FFE3E3"/>
<path d="M60.8166 62.6064C54.1688 57.1446 45.6593 53.8658 36.384 53.8658C27.1078 53.8658 18.5976 57.1453 11.9495 62.608C11.9495 62.608 20.6759 72.1588 36.384 72.1588C52.0921 72.1588 60.8166 62.6064 60.8166 62.6064Z" fill="#5B0000"/>
<path d="M51.7391 41.39L36.3832 26.0341L21.0273 41.39" stroke="#FF7373" stroke-width="7.43968" stroke-miterlimit="10"/>
</svg>
