<svg width="73" height="73" viewBox="0 0 73 73" fill="none" xmlns="http://www.w3.org/2000/svg">
<path d="M36.7311 72.606C56.6387 72.606 72.7771 56.4677 72.7771 36.56C72.7771 16.6524 56.6387 0.514038 36.7311 0.514038C16.8234 0.514038 0.685059 16.6524 0.685059 36.56C0.685059 56.4677 16.8234 72.606 36.7311 72.606Z" fill="#FFF1E6"/>
<path d="M61.165 63.0536C54.5172 57.5918 46.0077 54.313 36.7324 54.313C27.4562 54.313 18.9459 57.5924 12.2979 63.0552C12.2979 63.0552 21.0243 72.606 36.7324 72.606C52.4405 72.606 61.165 63.0536 61.165 63.0536Z" fill="#CC6111"/>
<path d="M47.5898 21.4912H25.8733V43.2077H47.5898V21.4912Z" stroke="#FFAA64" stroke-width="7.43968" stroke-miterlimit="10"/>
</svg>
