<svg width="73" height="73" viewBox="0 0 73 73" fill="none" xmlns="http://www.w3.org/2000/svg">
<path d="M36.2071 72.5392C56.1148 72.5392 72.2531 56.4008 72.2531 36.4932C72.2531 16.5855 56.1148 0.447205 36.2071 0.447205C16.2995 0.447205 0.161133 16.5855 0.161133 36.4932C0.161133 56.4008 16.2995 72.5392 36.2071 72.5392Z" fill="#E6F9FF"/>
<path d="M60.6399 62.9869C53.9921 57.5251 45.4825 54.2462 36.2073 54.2462C26.931 54.2462 18.4208 57.5257 11.7727 62.9885C11.7727 62.9885 20.4992 72.5392 36.2073 72.5392C51.9153 72.5392 60.6399 62.9869 60.6399 62.9869Z" fill="#061E4F"/>
<path d="M13.4927 42.7134C26.0369 42.7134 36.206 32.5442 36.206 20C36.206 32.5443 46.3752 42.7134 58.9194 42.7134" stroke="#76A7FF" stroke-width="8.96317" stroke-miterlimit="10"/>
</svg>
