<svg width="73" height="73" viewBox="0 0 73 73" fill="none" xmlns="http://www.w3.org/2000/svg">
<path d="M36.9056 72.092C56.8133 72.092 72.9516 55.9536 72.9516 36.046C72.9516 16.1383 56.8133 0 36.9056 0C16.998 0 0.859619 16.1383 0.859619 36.046C0.859619 55.9536 16.998 72.092 36.9056 72.092Z" fill="#FFE3E3"/>
<path d="M14.4248 21.0803C14.4248 33.6246 24.5939 43.7937 37.1382 43.7937C49.6824 43.7937 59.8515 33.6246 59.8515 21.0803" stroke="#FF7373" stroke-width="8.96317" stroke-miterlimit="10"/>
<path d="M61.3396 62.5397C54.6918 57.0779 46.1823 53.799 36.907 53.799C27.6308 53.799 19.1205 57.0785 12.4724 62.5413C12.4724 62.5413 21.1989 72.092 36.907 72.092C52.615 72.092 61.3396 62.5397 61.3396 62.5397Z" fill="#5B0000"/>
</svg>
