<svg width="73" height="73" viewBox="0 0 73 73" fill="none" xmlns="http://www.w3.org/2000/svg">
<path d="M36.2071 72.092C56.1148 72.092 72.2531 55.9536 72.2531 36.046C72.2531 16.1383 56.1148 0 36.2071 0C16.2995 0 0.161133 16.1383 0.161133 36.046C0.161133 55.9536 16.2995 72.092 36.2071 72.092Z" fill="#FFE3E3"/>
<path d="M60.6399 62.5397C53.9921 57.0779 45.4825 53.799 36.2073 53.799C26.931 53.799 18.4208 57.0785 11.7727 62.5413C11.7727 62.5413 20.4992 72.092 36.2073 72.092C51.9153 72.092 60.6399 62.5397 60.6399 62.5397Z" fill="#5B0000"/>
<path d="M13.4927 42.5399C26.0369 42.5399 36.206 32.3708 36.206 19.8265C36.206 32.3708 46.3752 42.5399 58.9194 42.5399" stroke="#FF7373" stroke-width="8.96317" stroke-miterlimit="10"/>
</svg>
