<svg width="24" height="24" viewBox="0 0 24 24" fill="none" xmlns="http://www.w3.org/2000/svg">
<path fill-rule="evenodd" clip-rule="evenodd" d="M12.0083 2.16663C6.47396 2.16663 2 6.67357 2 12.2493C2 16.7062 4.86662 20.4789 8.84338 21.8142C9.34058 21.9146 9.5227 21.5973 9.5227 21.3303C9.5227 21.0966 9.50631 20.2954 9.50631 19.4606C6.72225 20.0616 6.14249 18.2587 6.14249 18.2587C5.69508 17.0901 5.03215 16.7898 5.03215 16.7898C4.12092 16.1721 5.09852 16.1721 5.09852 16.1721C6.1093 16.2389 6.63969 17.2071 6.63969 17.2071C7.53432 18.7427 8.97592 18.3088 9.55588 18.0417C9.63865 17.3907 9.90394 16.94 10.1856 16.6896C7.96514 16.4559 5.62891 15.5879 5.62891 11.715C5.62891 10.6132 6.02634 9.71186 6.65608 9.01082C6.55672 8.76048 6.20866 7.72532 6.75564 6.33985C6.75564 6.33985 7.60069 6.07271 9.5061 7.3748C10.3219 7.1541 11.1632 7.04183 12.0083 7.04088C12.8533 7.04088 13.7148 7.15786 14.5102 7.3748C16.4159 6.07271 17.2609 6.33985 17.2609 6.33985C17.8079 7.72532 17.4596 8.76048 17.3603 9.01082C18.0066 9.71186 18.3876 10.6132 18.3876 11.715C18.3876 15.5879 16.0514 16.4391 13.8143 16.6896C14.179 17.0067 14.4936 17.6076 14.4936 18.5592C14.4936 19.9113 14.4773 20.9964 14.4773 21.3301C14.4773 21.5973 14.6596 21.9146 15.1566 21.8144C19.1333 20.4787 22 16.7062 22 12.2493C22.0163 6.67357 17.526 2.16663 12.0083 2.16663Z" fill="black"/>
</svg>
