<?xml version="1.0" encoding="UTF-8"?>
<svg id="_圖層_2" data-name="圖層 2" xmlns="http://www.w3.org/2000/svg" viewBox="0 0 521.01 105.53">
  <defs>
    <style>
      .cls-1 {
        fill: #11120d;
      }
    </style>
  </defs>
  <g id="_圖層_1-2" data-name="圖層 1">
    <g>
      <g>
        <path class="cls-1" d="M32.47,0C14.57,0,0,14.57,0,32.47v40.59c0,17.9,14.57,32.47,32.47,32.47s32.47-14.57,32.47-32.47V32.47c0-4.48,3.64-8.12,8.12-8.12V0c-7.67,0-14.73,2.68-20.29,7.15C47.2,2.68,40.14,0,32.47,0Zm0,81.18c-4.48,0-8.12-3.64-8.12-8.12V32.47c0-4.48,3.64-8.12,8.12-8.12s8.12,3.64,8.12,8.12v40.59c0,4.48-3.64,8.12-8.12,8.12Z"/>
        <path class="cls-1" d="M113.65,0c-17.9,0-32.47,14.57-32.47,32.47v40.59c0,17.9,14.57,32.47,32.47,32.47s32.47-14.57,32.47-32.47V32.47C146.12,14.57,131.55,0,113.65,0Zm8.12,73.06c0,4.48-3.64,8.12-8.12,8.12s-8.12-3.64-8.12-8.12V32.47c0-4.48,3.64-8.12,8.12-8.12s8.12,3.64,8.12,8.12v40.59Z"/>
      </g>
      <g>
        <path class="cls-1" d="M217.37,81.42c-3.28,0-6.26-.47-8.94-1.42-2.69-.95-5.07-2.32-7.14-4.11-2.07-1.79-3.8-3.97-5.18-6.53l10.44-6.83c1.33,1.89,3.06,3.42,5.18,4.57,2.12,1.15,4.29,1.73,6.49,1.73,1.69,0,2.96-.33,3.8-1,.84-.66,1.27-1.48,1.27-2.46,0-.66-.19-1.25-.58-1.77-.38-.51-1.14-1.01-2.26-1.5-1.13-.49-2.76-.96-4.91-1.42-4.5-1.02-8.09-2.32-10.75-3.88-2.66-1.56-4.56-3.46-5.68-5.68-1.13-2.23-1.69-4.77-1.69-7.64,0-3.17,.82-6.05,2.46-8.64,1.64-2.58,3.98-4.65,7.03-6.18,3.04-1.54,6.67-2.3,10.86-2.3,4.71,0,8.73,.93,12.05,2.8,3.33,1.87,5.89,4.26,7.68,7.18l-10.44,7.52c-1.18-1.59-2.75-2.73-4.72-3.42-1.97-.69-3.85-1.04-5.64-1.04-1.59,0-2.85,.29-3.8,.88-.95,.59-1.42,1.4-1.42,2.42s.52,1.84,1.57,2.46c1.05,.61,3.13,1.28,6.26,2,4.3,.97,7.82,2.21,10.56,3.72s4.76,3.38,6.07,5.6c1.31,2.23,1.96,4.95,1.96,8.18s-.82,6.1-2.46,8.64c-1.64,2.53-3.99,4.52-7.06,5.95-3.07,1.43-6.73,2.15-10.98,2.15Z"/>
        <path class="cls-1" d="M239.56,55.24v-12.82h28.48v12.82h-28.48Zm21.27,25.41c-4.81,0-8.57-1.09-11.29-3.26-2.71-2.17-4.07-5.82-4.07-10.94v-23.57l-.23-.46,2.92-9.44h11.21v29.02c0,2,.43,3.38,1.31,4.15,.87,.77,2.05,1.15,3.53,1.15,.72,0,1.42-.08,2.11-.23s1.27-.31,1.73-.46v13.05c-1.08,.36-2.19,.61-3.34,.77s-2.44,.23-3.88,.23Z"/>
        <path class="cls-1" d="M292.15,81.11c-3.99,0-7.5-.86-10.52-2.57-3.02-1.71-5.39-4.07-7.1-7.06-1.72-2.99-2.57-6.41-2.57-10.25s.86-7.25,2.57-10.25c1.71-2.99,4.08-5.35,7.1-7.06,3.02-1.71,6.53-2.57,10.52-2.57s7.51,.86,10.56,2.57c3.04,1.72,5.41,4.07,7.1,7.06,1.69,2.99,2.53,6.41,2.53,10.25s-.84,7.25-2.53,10.25c-1.69,2.99-4.06,5.35-7.1,7.06-3.05,1.71-6.56,2.57-10.56,2.57Zm0-13.59c1.74,0,3.2-.59,4.38-1.77s1.77-2.71,1.77-4.61-.59-3.42-1.77-4.57c-1.18-1.15-2.64-1.73-4.38-1.73s-3.19,.58-4.34,1.73-1.73,2.67-1.73,4.57,.58,3.43,1.73,4.61c1.15,1.18,2.6,1.77,4.34,1.77Z"/>
        <path class="cls-1" d="M326.7,42.42l3.69,10.59v27.02h-13.9V42.42h10.21Zm.23,19.12l-2-.84v-11.06l.77-.92c.67-.87,1.6-1.88,2.8-3.03,1.2-1.15,2.6-2.16,4.18-3.03,1.59-.87,3.25-1.31,4.99-1.31,.87,0,1.62,.06,2.26,.19,.64,.13,1.16,.32,1.57,.58v12.67h-2.61c-3.12,0-5.72,.54-7.79,1.61-2.07,1.07-3.47,2.79-4.18,5.14Z"/>
        <path class="cls-1" d="M363.24,81.11c-3.99,0-7.5-.86-10.52-2.57-3.02-1.71-5.39-4.07-7.1-7.06-1.72-2.99-2.57-6.41-2.57-10.25s.86-7.25,2.57-10.25c1.71-2.99,4.08-5.35,7.1-7.06,3.02-1.71,6.53-2.57,10.52-2.57s7.51,.86,10.56,2.57c3.04,1.72,5.41,4.07,7.1,7.06,1.69,2.99,2.53,6.41,2.53,10.25s-.84,7.25-2.53,10.25c-1.69,2.99-4.06,5.35-7.1,7.06-3.05,1.71-6.56,2.57-10.56,2.57Zm0-13.59c1.74,0,3.2-.59,4.38-1.77s1.77-2.71,1.77-4.61-.59-3.42-1.77-4.57c-1.18-1.15-2.64-1.73-4.38-1.73s-3.19,.58-4.34,1.73-1.73,2.67-1.73,4.57,.58,3.43,1.73,4.61c1.15,1.18,2.6,1.77,4.34,1.77Z"/>
        <path class="cls-1" d="M387.58,80.04V42.42h10.21l2.76,8.06-5.3-.69c1.23-1.38,2.7-2.71,4.41-3.99,1.71-1.28,3.61-2.34,5.68-3.19,2.07-.84,4.26-1.27,6.56-1.27s4.29,.42,5.8,1.27c1.51,.84,2.69,1.98,3.53,3.42,.84,1.43,1.45,3.07,1.8,4.91,.36,1.84,.54,3.76,.54,5.76v23.34h-13.9v-20.96c0-1.74-.22-2.87-.65-3.38-.43-.51-1.04-.77-1.8-.77-1.02,0-2.07,.27-3.15,.81-1.08,.54-2.33,1.34-3.76,2.42l-3.46-6.76h4.61v28.64h-13.9Zm44.14,0v-20.96c0-1.74-.21-2.87-.61-3.38-.41-.51-1-.77-1.77-.77-1.02,0-2.07,.27-3.15,.81-1.08,.54-2.33,1.34-3.76,2.42l-5.07-8.37c1.23-1.38,2.7-2.71,4.42-3.99,1.71-1.28,3.61-2.34,5.68-3.19,2.07-.84,4.23-1.27,6.49-1.27s4.3,.42,5.83,1.27c1.54,.84,2.73,1.98,3.57,3.42,.84,1.43,1.45,3.07,1.8,4.91,.36,1.84,.54,3.76,.54,5.76v23.34h-13.97Z"/>
        <path class="cls-1" d="M451.6,94.62V42.42h10.29l3.61,11.13h-.69v14.66h.69v26.41h-13.9Zm22.03-13.51c-3.22,0-6.03-.72-8.41-2.15-2.38-1.43-4.22-3.62-5.53-6.56-1.3-2.94-1.96-6.67-1.96-11.17,0-4.2,.68-7.77,2.03-10.71,1.36-2.94,3.24-5.21,5.64-6.79,2.41-1.59,5.19-2.38,8.37-2.38,3.38,0,6.36,.86,8.94,2.57,2.58,1.72,4.62,4.07,6.1,7.06,1.48,2.99,2.23,6.41,2.23,10.25s-.76,7.19-2.26,10.21c-1.51,3.02-3.58,5.39-6.22,7.1-2.64,1.71-5.62,2.57-8.94,2.57Zm-2.69-13.59c1.64,0,3.04-.6,4.22-1.8,1.18-1.2,1.77-2.7,1.77-4.49s-.59-3.3-1.77-4.53c-1.18-1.23-2.58-1.84-4.22-1.84s-3.07,.61-4.3,1.84-1.84,2.74-1.84,4.53,.61,3.29,1.84,4.49c1.23,1.2,2.66,1.8,4.3,1.8Z"/>
        <path class="cls-1" d="M492.52,55.24v-12.82h28.48v12.82h-28.48Zm21.27,25.41c-4.81,0-8.57-1.09-11.29-3.26-2.71-2.17-4.07-5.82-4.07-10.94v-23.57l-.23-.46,2.92-9.44h11.21v29.02c0,2,.43,3.38,1.31,4.15,.87,.77,2.05,1.15,3.53,1.15,.72,0,1.42-.08,2.11-.23s1.27-.31,1.73-.46v13.05c-1.08,.36-2.19,.61-3.34,.77s-2.44,.23-3.88,.23Z"/>
      </g>
    </g>
  </g>
</svg>