<?xml version="1.0" encoding="UTF-8"?>
<svg id="_圖層_2" data-name="圖層 2" xmlns="http://www.w3.org/2000/svg" viewBox="0 0 517.85 374">
  <defs>
    <style>
      .cls-1 {
        fill: #fff;
      }
    </style>
  </defs>
  <g id="_圖層_1-2" data-name="圖層 1">
    <g>
      <path class="cls-1" d="M115.08,0C51.62,0,0,51.62,0,115.08v143.85c0,63.45,51.62,115.08,115.08,115.08s115.08-51.62,115.08-115.08V115.08c0-15.86,12.91-28.77,28.77-28.77V0c-27.2,0-52.21,9.51-71.92,25.34C167.28,9.51,142.27,0,115.08,0Zm0,287.69c-15.86,0-28.77-12.91-28.77-28.77V115.08c0-15.86,12.91-28.77,28.77-28.77s28.77,12.91,28.77,28.77v143.85c0,15.86-12.91,28.77-28.77,28.77Z"/>
      <path class="cls-1" d="M402.77,0c-63.45,0-115.08,51.62-115.08,115.08v143.85c0,63.45,51.62,115.08,115.08,115.08s115.08-51.62,115.08-115.08V115.08c0-63.45-51.62-115.08-115.08-115.08Zm28.77,258.92c0,15.86-12.91,28.77-28.77,28.77s-28.77-12.91-28.77-28.77V115.08c0-15.86,12.91-28.77,28.77-28.77s28.77,12.91,28.77,28.77v143.85Z"/>
    </g>
  </g>
</svg>