<svg width="24" height="24" viewBox="0 0 24 24" fill="none" xmlns="http://www.w3.org/2000/svg">
<path d="M16.6722 11.3427C16.5971 11.3055 16.5208 11.2697 16.4435 11.2355C16.3089 8.67546 14.954 7.20984 12.6789 7.19484C12.6686 7.19478 12.6583 7.19478 12.648 7.19478C11.2872 7.19478 10.1554 7.79446 9.45885 8.88569L10.7101 9.77183C11.2305 8.95672 12.0472 8.78295 12.6486 8.78295C12.6556 8.78295 12.6625 8.78295 12.6694 8.78302C13.4185 8.78795 13.9838 9.01281 14.3497 9.45131C14.6159 9.77056 14.794 10.2117 14.8822 10.7685C14.218 10.6519 13.4997 10.6161 12.7318 10.6616C10.5688 10.7902 9.17817 12.0926 9.27156 13.9024C9.31896 14.8204 9.76194 15.6101 10.5188 16.126C11.1588 16.5622 11.983 16.7754 12.8396 16.7272C13.9709 16.6631 14.8584 16.2175 15.4775 15.4028C15.9477 14.784 16.2451 13.9822 16.3764 12.9718C16.9155 13.3077 17.3151 13.7498 17.5357 14.2811C17.911 15.1844 17.9329 16.6687 16.7597 17.8789C15.7319 18.939 14.4963 19.3976 12.6291 19.4118C10.5578 19.3959 8.99135 18.7102 7.97288 17.3735C7.01916 16.1218 6.52627 14.3139 6.50788 12C6.52627 9.68604 7.01916 7.87815 7.97288 6.6265C8.99135 5.28983 10.5578 4.60406 12.6291 4.58817C14.7153 4.60418 16.3091 5.29326 17.3666 6.63637C17.8851 7.29502 18.276 8.12333 18.5337 9.08909L20 8.68521C19.6876 7.49646 19.1961 6.4721 18.5272 5.62256C17.1715 3.90063 15.1888 3.0183 12.6342 3H12.6239C10.0745 3.01823 8.11399 3.90392 6.79693 5.63243C5.62493 7.1706 5.02038 9.31085 5.00006 11.9937L5 12L5.00006 12.0063C5.02038 14.6891 5.62493 16.8294 6.79693 18.3676C8.11399 20.0961 10.0745 20.9818 12.6239 21H12.6342C14.9008 20.9838 16.4984 20.3711 17.8146 19.0135C19.5366 17.2374 19.4848 15.0112 18.9172 13.6445C18.51 12.6644 17.7337 11.8684 16.6722 11.3427ZM12.7587 15.1413C11.8106 15.1964 10.8257 14.7571 10.7772 13.8161C10.7412 13.1184 11.2581 12.3399 12.8168 12.2472C12.9954 12.2366 13.1705 12.2314 13.3426 12.2314C13.9088 12.2314 14.4385 12.2882 14.92 12.3968C14.7404 14.7127 13.6869 15.0887 12.7587 15.1413Z" fill="black"/>
</svg>
